<?xml version="1.0" encoding="utf-8"?>
<!-- Generator: Adobe Illustrator 26.5.0, SVG Export Plug-In . SVG Version: 6.00 Build 0)  -->
<svg version="1.1" id="Layer_1" xmlns="http://www.w3.org/2000/svg" xmlns:xlink="http://www.w3.org/1999/xlink" x="0px" y="0px"
	 viewBox="0 0 1080 813.4" style="enable-background:new 0 0 1080 813.4;" xml:space="preserve">
<style type="text/css">
	.st0{fill:#6F8764;}
	.st1{fill:#EF7F6D;}
</style>
<g>
	<g>
		<path class="st0" d="M31.5,601.2v-25.4H21.2V571h26.3v4.8H37.2v25.4H31.5z"/>
		<path class="st0" d="M55,601.2V571h5.7v12.5H76V571h5.7v30.2H76v-12.9H60.7v12.9H55z"/>
		<path class="st0" d="M92.2,601.2V571h20.4v4.6H97.7v8h14v4.6h-14v8.4h14.9v4.6H92.2z"/>
		<path class="st0" d="M151.5,601.6c-3.1,0-5.7-0.6-8-1.9c-2.2-1.3-4-3-5.2-5.4c-1.2-2.3-1.8-5.1-1.8-8.3s0.6-6,1.8-8.3
			c1.2-2.3,2.9-4.1,5.2-5.4c2.2-1.3,4.9-1.9,8-1.9c2.1,0,4,0.3,5.8,0.9c1.8,0.6,3.3,1.5,4.5,2.7l-1.9,4.5c-1.3-1.1-2.6-1.9-3.9-2.3
			c-1.3-0.5-2.7-0.7-4.3-0.7c-2.9,0-5.2,0.9-6.8,2.7c-1.6,1.8-2.4,4.4-2.4,7.8c0,3.4,0.8,6,2.4,7.8c1.6,1.8,3.9,2.7,6.9,2.7
			c1.5,0,3-0.2,4.3-0.7c1.3-0.5,2.6-1.2,3.9-2.3l1.9,4.5c-1.2,1.1-2.7,2-4.5,2.6C155.5,601.3,153.6,601.6,151.5,601.6z"/>
		<path class="st0" d="M170.6,601.2V571h5.7v12.5h15.3V571h5.7v30.2h-5.7v-12.9h-15.3v12.9H170.6z"/>
		<path class="st0" d="M207.8,601.2V571h5.7v30.2H207.8z"/>
		<path class="st0" d="M224,601.2V571h5.7v25.4h14.5v4.8H224z"/>
		<path class="st0" d="M252.2,601.2V571h11.5c3.3,0,6.2,0.6,8.5,1.8c2.3,1.2,4.1,2.9,5.4,5.1c1.2,2.2,1.8,5,1.8,8.2
			c0,3.2-0.6,6-1.8,8.2c-1.2,2.3-3,4-5.4,5.1c-2.3,1.2-5.2,1.8-8.5,1.8H252.2z M257.9,596.4h5.5c3.4,0,5.9-0.9,7.6-2.6
			c1.7-1.7,2.6-4.3,2.6-7.8s-0.9-6.1-2.6-7.8c-1.7-1.7-4.3-2.6-7.6-2.6h-5.5V596.4z"/>
		<path class="st0" d="M288.9,601.2V571h13.3c3.4,0,6,0.8,7.8,2.4c1.8,1.6,2.7,3.8,2.7,6.7c0,1.7-0.4,3.2-1.1,4.5
			c-0.7,1.3-1.8,2.2-3.1,2.9c-1.3,0.7-3,1.1-4.8,1.2l0.3-0.3l1,0c0.9,0.1,1.8,0.4,2.5,0.9c0.7,0.5,1.4,1.4,2,2.5l5.1,9.4h-6.2
			l-5.1-9.4c-0.3-0.7-0.7-1.2-1.2-1.5c-0.4-0.4-0.9-0.6-1.5-0.8c-0.5-0.1-1.2-0.2-1.9-0.2h-4.2v11.9H288.9z M294.6,585h6.9
			c1.9,0,3.4-0.4,4.3-1.2c1-0.8,1.4-2,1.4-3.6c0-1.6-0.5-2.7-1.5-3.5c-1-0.8-2.4-1.2-4.4-1.2h-6.8V585z"/>
		<path class="st0" d="M322.6,601.2V571H343v4.6h-14.9v8h14v4.6h-14v8.4H343v4.6H322.6z"/>
		<path class="st0" d="M352.6,601.2V571h4.5l16.9,22.1h-0.7V571h5.4v30.2H374l-16.7-22h0.6v22H352.6z"/>
		<path class="st0" d="M391,583.3l-2.4-1.9c0.6-0.6,1.1-1.2,1.4-1.8c0.4-0.6,0.6-1.2,0.8-1.8c0.2-0.6,0.3-1.2,0.3-1.9l1.3,1.1H388
			V571h6.4v4.2c0,1-0.1,2-0.3,3c-0.2,0.9-0.6,1.8-1.1,2.7C392.5,581.7,391.8,582.5,391,583.3z"/>
		<path class="st0" d="M414.6,601.6c-1.6,0-3.2-0.1-4.7-0.4c-1.5-0.3-2.8-0.6-4.1-1.1c-1.2-0.5-2.3-1.1-3.3-1.8l1.8-4.5
			c0.9,0.7,2,1.2,3,1.6c1.1,0.4,2.2,0.8,3.4,1c1.2,0.2,2.5,0.3,3.8,0.3c2.2,0,3.8-0.4,4.8-1.1s1.6-1.7,1.6-3c0-0.7-0.2-1.2-0.5-1.7
			c-0.3-0.4-0.8-0.8-1.6-1.1c-0.7-0.3-1.7-0.6-2.8-0.8l-4.8-0.9c-2.8-0.5-4.8-1.5-6.1-2.9c-1.3-1.4-2-3.2-2-5.5
			c0-1.9,0.5-3.5,1.5-4.9s2.4-2.5,4.3-3.2c1.8-0.8,3.9-1.1,6.3-1.1c1.4,0,2.7,0.1,4,0.4c1.3,0.3,2.5,0.6,3.6,1.2
			c1.1,0.5,2,1.1,2.9,1.8l-1.8,4.4c-1.2-1-2.5-1.8-4-2.2c-1.4-0.5-3-0.7-4.7-0.7c-1.3,0-2.4,0.2-3.4,0.5c-1,0.3-1.7,0.8-2.2,1.5
			c-0.5,0.6-0.8,1.4-0.8,2.3c0,1,0.3,1.8,1,2.4c0.7,0.6,1.8,1,3.5,1.4l4.8,0.9c2.9,0.6,5,1.5,6.4,2.8c1.4,1.3,2.1,3.1,2.1,5.2
			c0,1.8-0.5,3.4-1.5,4.8c-1,1.4-2.4,2.5-4.2,3.2C419.2,601.2,417.1,601.6,414.6,601.6z"/>
		<path class="st0" d="M464.7,601.6c-3.1,0-5.7-0.6-8-1.9c-2.2-1.3-4-3-5.2-5.4c-1.2-2.3-1.8-5.1-1.8-8.3s0.6-6,1.8-8.3
			c1.2-2.3,2.9-4.1,5.2-5.4c2.2-1.3,4.9-1.9,8-1.9c2.1,0,4,0.3,5.8,0.9c1.8,0.6,3.3,1.5,4.5,2.7l-1.9,4.5c-1.3-1.1-2.6-1.9-3.9-2.3
			c-1.3-0.5-2.7-0.7-4.3-0.7c-2.9,0-5.2,0.9-6.8,2.7c-1.6,1.8-2.4,4.4-2.4,7.8c0,3.4,0.8,6,2.4,7.8c1.6,1.8,3.9,2.7,6.9,2.7
			c1.5,0,3-0.2,4.3-0.7c1.3-0.5,2.6-1.2,3.9-2.3l1.9,4.5c-1.2,1.1-2.7,2-4.5,2.6C468.6,601.3,466.7,601.6,464.7,601.6z"/>
		<path class="st0" d="M496.4,601.6c-2.2,0-4.2-0.4-6-1.1c-1.8-0.7-3.3-1.8-4.6-3.1c-1.3-1.4-2.3-3-3-4.9c-0.7-1.9-1-4.1-1-6.4
			c0-2.4,0.3-4.5,1-6.4c0.7-1.9,1.7-3.5,3-4.9c1.3-1.4,2.8-2.4,4.6-3.1c1.8-0.7,3.8-1.1,6-1.1c2.2,0,4.2,0.4,6,1.1
			c1.8,0.7,3.3,1.8,4.6,3.1c1.3,1.3,2.3,3,3,4.9c0.7,1.9,1,4,1,6.4c0,2.4-0.3,4.5-1,6.4c-0.7,1.9-1.7,3.6-3,4.9
			c-1.3,1.4-2.8,2.4-4.6,3.1C500.6,601.2,498.6,601.6,496.4,601.6z M496.4,596.7c1.9,0,3.4-0.4,4.7-1.2c1.3-0.8,2.3-2,3-3.6
			s1-3.5,1-5.8c0-2.3-0.3-4.2-1-5.8c-0.7-1.6-1.7-2.8-3-3.6c-1.3-0.8-2.9-1.2-4.8-1.2c-1.9,0-3.4,0.4-4.8,1.2c-1.3,0.8-2.3,2-3,3.6
			c-0.7,1.6-1,3.5-1,5.8c0,2.3,0.3,4.2,1,5.8c0.7,1.6,1.7,2.8,3,3.6C492.9,596.3,494.5,596.7,496.4,596.7z"/>
		<path class="st0" d="M520.5,601.2V571h5.7v25.4h14.5v4.8H520.5z"/>
		<path class="st0" d="M548.8,601.2V571h5.7v25.4h14.5v4.8H548.8z"/>
		<path class="st0" d="M577,601.2V571h20.4v4.6h-14.9v8h14v4.6h-14v8.4h14.9v4.6H577z"/>
		<path class="st0" d="M620.9,601.6c-3.1,0-5.7-0.6-8-1.9c-2.2-1.3-4-3-5.2-5.4c-1.2-2.3-1.8-5.1-1.8-8.3s0.6-6,1.8-8.3
			c1.2-2.3,2.9-4.1,5.2-5.4c2.2-1.3,4.9-1.9,8-1.9c2.1,0,4,0.3,5.8,0.9c1.8,0.6,3.3,1.5,4.5,2.7l-1.9,4.5c-1.3-1.1-2.6-1.9-3.9-2.3
			c-1.3-0.5-2.7-0.7-4.3-0.7c-2.9,0-5.2,0.9-6.8,2.7c-1.6,1.8-2.4,4.4-2.4,7.8c0,3.4,0.8,6,2.4,7.8c1.6,1.8,3.9,2.7,6.9,2.7
			c1.5,0,3-0.2,4.3-0.7c1.3-0.5,2.6-1.2,3.9-2.3l1.9,4.5c-1.2,1.1-2.7,2-4.5,2.6C624.8,601.3,622.9,601.6,620.9,601.6z"/>
		<path class="st0" d="M646.8,601.2v-25.4h-10.3V571h26.3v4.8h-10.3v25.4H646.8z"/>
		<path class="st0" d="M670.3,601.2V571h5.7v30.2H670.3z"/>
		<path class="st0" d="M695.8,601.2L682.4,571h6l10.4,24.4h-1.2L708,571h5.9l-13.4,30.2H695.8z"/>
		<path class="st0" d="M720.5,601.2V571h20.4v4.6H726v8h14v4.6h-14v8.4h14.9v4.6H720.5z"/>
		<path class="st0" d="M779.4,601.6c-2.2,0-4.2-0.4-6-1.1c-1.8-0.7-3.3-1.8-4.6-3.1c-1.3-1.4-2.3-3-3-4.9c-0.7-1.9-1-4.1-1-6.4
			c0-2.4,0.3-4.5,1-6.4c0.7-1.9,1.7-3.5,3-4.9c1.3-1.4,2.8-2.4,4.6-3.1s3.8-1.1,6-1.1c2.2,0,4.2,0.4,6,1.1s3.3,1.8,4.6,3.1
			s2.3,3,3,4.9c0.7,1.9,1,4,1,6.4c0,2.4-0.3,4.5-1,6.4c-0.7,1.9-1.7,3.6-3,4.9c-1.3,1.4-2.8,2.4-4.6,3.1
			C783.6,601.2,781.6,601.6,779.4,601.6z M779.4,596.7c1.9,0,3.4-0.4,4.7-1.2c1.3-0.8,2.3-2,3-3.6s1-3.5,1-5.8c0-2.3-0.3-4.2-1-5.8
			c-0.7-1.6-1.7-2.8-3-3.6c-1.3-0.8-2.9-1.2-4.8-1.2c-1.9,0-3.4,0.4-4.8,1.2c-1.3,0.8-2.3,2-3,3.6c-0.7,1.6-1,3.5-1,5.8
			c0,2.3,0.3,4.2,1,5.8s1.7,2.8,3,3.6C776,596.3,777.6,596.7,779.4,596.7z"/>
		<path class="st0" d="M803.6,601.2V571h20.2v4.6h-14.5v8.3h13.6v4.6h-13.6v12.7H803.6z"/>
		<path class="st0" d="M847.4,601.2V571h20.2v4.6h-14.5v8.3h13.6v4.6h-13.6v12.7H847.4z"/>
		<path class="st0" d="M875.9,601.2V571h5.7v25.4h14.5v4.8H875.9z"/>
		<path class="st0" d="M916.1,601.6c-2.2,0-4.2-0.4-6-1.1c-1.8-0.7-3.3-1.8-4.6-3.1c-1.3-1.4-2.3-3-3-4.9c-0.7-1.9-1-4.1-1-6.4
			c0-2.4,0.3-4.5,1-6.4c0.7-1.9,1.7-3.5,3-4.9c1.3-1.4,2.8-2.4,4.6-3.1s3.8-1.1,6-1.1c2.2,0,4.2,0.4,6,1.1s3.3,1.8,4.6,3.1
			s2.3,3,3,4.9c0.7,1.9,1,4,1,6.4c0,2.4-0.3,4.5-1,6.4c-0.7,1.9-1.7,3.6-3,4.9c-1.3,1.4-2.8,2.4-4.6,3.1
			C920.3,601.2,918.3,601.6,916.1,601.6z M916.1,596.7c1.9,0,3.4-0.4,4.7-1.2c1.3-0.8,2.3-2,3-3.6s1-3.5,1-5.8c0-2.3-0.3-4.2-1-5.8
			c-0.7-1.6-1.7-2.8-3-3.6c-1.3-0.8-2.9-1.2-4.8-1.2c-1.9,0-3.4,0.4-4.8,1.2c-1.3,0.8-2.3,2-3,3.6c-0.7,1.6-1,3.5-1,5.8
			c0,2.3,0.3,4.2,1,5.8s1.7,2.8,3,3.6C912.7,596.3,914.3,596.7,916.1,596.7z"/>
		<path class="st0" d="M940.3,601.2V571h13.3c3.4,0,6,0.8,7.8,2.4c1.8,1.6,2.7,3.8,2.7,6.7c0,1.7-0.4,3.2-1.1,4.5
			c-0.7,1.3-1.8,2.2-3.1,2.9c-1.3,0.7-3,1.1-4.8,1.2l0.3-0.3l1,0c0.9,0.1,1.8,0.4,2.5,0.9c0.7,0.5,1.4,1.4,2,2.5l5.1,9.4h-6.2
			l-5.1-9.4c-0.3-0.7-0.7-1.2-1.2-1.5s-0.9-0.6-1.5-0.8c-0.5-0.1-1.2-0.2-1.9-0.2h-4.2v11.9H940.3z M945.9,585h6.9
			c1.9,0,3.4-0.4,4.3-1.2s1.4-2,1.4-3.6c0-1.6-0.5-2.7-1.5-3.5c-1-0.8-2.4-1.2-4.4-1.2h-6.8V585z"/>
		<path class="st0" d="M973.9,601.2V571h5.7v30.2H973.9z"/>
		<path class="st0" d="M990.1,601.2V571h11.5c3.3,0,6.2,0.6,8.5,1.8c2.3,1.2,4.1,2.9,5.4,5.1c1.2,2.2,1.8,5,1.8,8.2
			c0,3.2-0.6,6-1.8,8.2c-1.2,2.3-3,4-5.4,5.1c-2.3,1.2-5.2,1.8-8.5,1.8H990.1z M995.8,596.4h5.5c3.4,0,5.9-0.9,7.6-2.6
			c1.7-1.7,2.6-4.3,2.6-7.8s-0.9-6.1-2.6-7.8c-1.7-1.7-4.3-2.6-7.6-2.6h-5.5V596.4z"/>
		<path class="st0" d="M1022.9,601.2l13.6-30.2h4.8l13.6,30.2h-5.8l-3.6-8.5l2.4,1.8h-18.1l2.4-1.8l-3.6,8.5H1022.9z M1038.8,577
			l-6,14.2l-1.1-1.3h14.3l-1.1,1.3l-6-14.2H1038.8z"/>
	</g>
	<g>
		<path class="st0" d="M137.7,507.7c-24.3,0-45.3-5-63-14.9c-17.7-9.9-31.3-24-40.9-42.4c-9.6-18.4-14.4-40.1-14.4-65.4
			c0-25.2,4.8-47,14.4-65.2c9.6-18.2,23.1-32.3,40.7-42.2c17.6-9.9,38.6-14.9,63.2-14.9c16.2,0,31.4,2.4,45.4,7.1
			c14.1,4.7,25.8,11.7,35.3,20.9L203.6,326c-10.1-8.6-20.4-14.7-30.7-18.4c-10.4-3.7-21.6-5.6-33.8-5.6c-23.2,0-41.2,7.2-53.9,21.5
			c-12.7,14.3-19.1,34.9-19.1,61.6c0,26.8,6.3,47.4,18.9,61.8c12.6,14.4,30.6,21.6,54,21.6c12.2,0,23.4-1.9,33.8-5.6
			c10.4-3.7,20.6-9.8,30.7-18.4l14.9,35.1c-9.5,9-21.2,15.9-35.3,20.8C169,505.3,153.9,507.7,137.7,507.7z"/>
		<path class="st0" d="M407.2,507.7c-24.3,0-45.3-5-63-14.9c-17.7-9.9-31.3-24-40.9-42.4c-9.6-18.4-14.4-40.1-14.4-65.4
			c0-25.2,4.8-47,14.4-65.2c9.6-18.2,23.1-32.3,40.7-42.2c17.6-9.9,38.6-14.9,63.2-14.9c16.2,0,31.4,2.4,45.4,7.1
			c14.1,4.7,25.8,11.7,35.3,20.9L473.1,326c-10.1-8.6-20.4-14.7-30.7-18.4c-10.4-3.7-21.6-5.6-33.8-5.6c-23.2,0-41.2,7.2-53.9,21.5
			c-12.7,14.3-19.1,34.9-19.1,61.6c0,26.8,6.3,47.4,18.9,61.8c12.6,14.4,30.6,21.6,54,21.6c12.2,0,23.4-1.9,33.8-5.6
			c10.4-3.7,20.6-9.8,30.7-18.4l14.9,35.1c-9.5,9-21.2,15.9-35.3,20.8C438.6,505.3,423.5,507.7,407.2,507.7z"/>
		<path class="st0" d="M901.4,504.4V266.2h159.1v36.1H946v65.2h107.4V404H946v100.3H901.4z"/>
	</g>
	<g>
		<path class="st0" d="M660.1,234.9c0,3.6,0.7,7.1,1.8,10.3c-4,0.9-8.1,2-11.9,3.3c-30.4,10.5-53.3,31.1-67.3,56.5
			c-3.1-1.9-6.6-3.1-10.3-3.6c16.3-34.1,47.7-61.2,87.8-70.1C660.2,232.5,660.1,233.7,660.1,234.9z"/>
		<path class="st0" d="M805.5,301.4c-3.7,0.5-7.2,1.8-10.3,3.7c-13.9-25.4-36.9-46.1-67.3-56.5l-3.8-1.2c-1.3-0.4-4.5-1.2-5.7-1.6
			c-0.3-0.1-0.6-0.1-0.9-0.2c1.3-3.3,2-6.9,2-10.6c0-1.1-0.1-2.2-0.2-3.3c3,0.7,6.1,1.6,8.9,2.5c1.3,0.5,5,1.7,6.3,2.2
			c1.9,0.8,4.2,1.7,6.1,2.5C770.4,251.5,792.6,274.4,805.5,301.4z"/>
		<path class="st0" d="M587.3,445.2c-3.3,0-6.5-1.6-8.4-4.3c-17.8-25.3-25.6-56.8-20.2-87.9c3.2,1.3,6.7,2,10.3,2c0.3,0,0.7,0,1,0
			c-3.4,16.5-3.1,34,1.7,51.6c3.5,13,9.4,25,17.1,35.8C589.6,443.5,588.7,445.2,587.3,445.2z"/>
		<path class="st0" d="M810.3,424.6c-0.5,1.1-1.3,1.9-2.3,2.5c-1,0.6-2.1,0.9-3.3,0.9c-1.9,0-3.1-1.9-2.3-3.6
			c0.4-0.9,0.3-0.7,1.1-2.3c1.8-3.9,3.2-8,4.4-12.1c1.6-5.1,2.8-10.4,3.6-15.7c0.4-2.7,0.7-5.4,0.9-8.1c0.8-10.8,0.1-21.3-2-31.3
			c3.7-0.2,7.2-1.1,10.3-2.6C825,376.8,821.5,402.1,810.3,424.6z"/>
		<g id="circles_00000121245284777991219780000003997923688073437612_">
			<circle class="st0" cx="569" cy="328.1" r="20.3"/>
			<circle class="st0" cx="809.2" cy="328.1" r="20.3"/>
			<circle class="st0" cx="689.8" cy="234.9" r="23.1"/>
			<circle class="st0" cx="689" cy="331.7" r="27.9"/>
		</g>
		<path class="st0" d="M560.1,472.8c0,0,9.8-4,23.8-11.1c14.1-7.1,29.4-15.4,49.4-15.4c20,0,26.4,6.8,44.1,11.9
			c17.7,5.1,28.5,6.6,42.1,4.1s22.4-5.9,26,2.2c3.6,8.1-7.1,19.2-51.6,24.6c-10.1,1.3-24-0.8-24-0.8s9.9,8.9,40.7,8.9
			c30.9,0,54.2-18.1,66.8-30.1c18.2-14.1,32.8-40.5,45.8-39.7c13,0.8-5.9,48.2-55.7,84.3c-52.4,35.9-112.8,24.7-144.7,10.6
			C590.9,508.3,570.7,485.6,560.1,472.8z"/>
		<path class="st0" d="M758.6,328.5c-1.7-1.3-3.7-2-5.7-2c-2.6,0-5.1,1.1-7,3.2l-2.9,3.3c0,0-11.9,15.7-20.9,23.7
			c-9,8-20.5,13.7-35.1,13.7c-14.6,0-24.6-7.1-36.3-18.9c-6.4-6.4-12.5-14.6-16.7-20.7c-3.1-4.5-9.5-5.4-13.7-1.9
			c-1.9,1.6-2.8,4.1-2.8,6.7c0,2.4,0.7,4.8,2,6.7c4.9,7.3,11.1,17.4,13.9,22.1c4.3,7.2,14.9,20.6,14.9,45.2
			c-0.2,20.8-2.5,30.3-2.5,30.3s13.5,3.4,24.3,8.1c10.8,4.7,23.3,8.1,33.7,8.1c10.4,0,23.2-1.9,27.5-3.9c0,0-6.1-30.8-1.6-51.2
			c2.5-11.6,4-17.4,8.7-26.2c3.5-6.6,8.9-15.3,17.7-27.6c1-1.4,2.5-3.4,3.4-4.6C762.4,338.6,762.5,331.7,758.6,328.5z M711.7,404.4
			c0,4.1-2.1,9.4-5.5,13.7c-5.6,7.1-13.9,13.1-14.3,13.3l-3.4,2.4l-3.4-2.4c-0.4-0.3-8.7-6.3-14.3-13.3c-3.4-4.3-5.5-9.5-5.5-13.6
			c0-1.6,0.2-6.9,3.9-10.7c1.6-1.7,4.5-3.6,9.1-3.6c4.1,0,7.6,1.6,10.3,3.7c2.7-2,6.1-3.7,10.3-3.7c4.6,0,7.5,2,9.1,3.6
			C711.5,397.5,711.7,402.7,711.7,404.4z"/>
		<path class="st1" d="M705.9,404.3c0,2.7-1.6,6.7-4.3,10.1c-5.2,6.5-13.1,12.2-13.1,12.2s-8-5.7-13.1-12.2
			c-2.7-3.4-4.3-7.4-4.3-10.1c0-0.9,0-8.4,7.2-8.4c6.6,0,10.3,6.4,10.3,6.4s3.7-6.4,10.3-6.4C705.9,395.9,705.9,403.4,705.9,404.3z"
			/>
	</g>
</g>
<g>
</g>
<g>
</g>
<g>
</g>
<g>
</g>
<g>
</g>
<g>
</g>
</svg>
