<?xml version="1.0" encoding="UTF-8"?>
<!-- CCOF PRIMARY LOGO v3 — "Open Hands" stacked (Finalist F2, adopted 2026-07-03) · wordmark outlined · canvas 2600 -->
<svg xmlns="http://www.w3.org/2000/svg" viewBox="0 0 2600 2600">
<g id="icon" transform="translate(-49.3,-116.5) scale(2.62)">

<path fill-rule="evenodd" fill="#FAF9F5" d="M 200.6 207.2 Q 199.8 208.1 198.8 209.3 Q 197.7 210.4 196.8 211.6 Q 196.0 212.8 195.3 213.9 Q 194.7 215.1 194.2 216.2 Q 193.8 217.4 193.5 218.5 Q 193.3 219.6 193.2 220.9 Q 193.2 222.1 193.4 223.5 Q 193.6 224.9 194.0 226.4 Q 194.4 227.9 195.0 229.5 Q 195.6 231.1 196.1 233.2 Q 196.6 235.2 196.9 237.6 Q 197.2 240.1 197.3 242.9 Q 197.5 245.8 197.5 249.0 Q 197.5 252.3 197.8 256.2 Q 198.2 260.2 198.9 264.9 Q 199.6 269.6 200.6 275.0 Q 201.6 280.4 203.0 286.5 Q 204.4 292.6 206.0 298.8 Q 207.7 305.1 209.6 311.4 Q 211.6 317.7 213.8 324.1 Q 216.0 330.5 218.5 337.0 Q 221.0 343.5 224.0 350.2 Q 226.9 356.8 230.4 363.6 Q 233.8 370.4 237.7 377.4 Q 241.6 384.4 246.0 391.5 Q 250.4 398.6 253.9 404.1 Q 257.4 409.6 260.1 413.5 Q 262.8 417.4 264.7 419.6 Q 266.5 421.9 267.5 422.5 Q 268.5 423.1 269.8 424.3 Q 271.2 425.5 272.8 427.2 Q 274.5 428.9 276.5 431.2 Q 278.4 433.4 280.8 436.3 Q 283.1 439.1 286.3 442.4 Q 289.6 445.7 293.8 449.4 Q 298.0 453.2 303.2 457.5 Q 308.4 461.8 314.5 466.5 Q 320.6 471.3 326.2 475.3 Q 331.8 479.4 336.8 482.8 Q 341.8 486.1 346.2 488.8 Q 350.6 491.5 354.5 493.5 Q 358.4 495.5 363.7 497.9 Q 368.9 500.3 375.6 503.1 Q 382.3 505.9 390.4 509.2 Q 398.5 512.4 408.0 516.0 Q 417.5 519.6 426.3 523.4 Q 435.1 527.1 443.3 531.0 Q 451.4 534.9 458.8 538.9 Q 466.3 542.9 473.0 547.0 Q 479.8 551.1 485.0 554.1 Q 490.2 557.1 493.8 558.9 Q 497.5 560.8 499.6 561.5 Q 501.7 562.2 502.3 561.8 Q 502.8 561.3 503.4 559.8 Q 503.9 558.3 504.4 555.7 Q 505.0 553.1 505.5 549.4 Q 506.0 545.8 506.5 541.0 Q 507.0 536.3 507.3 531.2 Q 507.5 526.1 507.5 520.6 Q 507.5 515.2 507.3 509.4 Q 507.0 503.6 506.5 497.5 Q 506.0 491.4 505.3 485.5 Q 504.5 479.6 503.5 474.0 Q 502.5 468.4 501.3 463.0 Q 500.0 457.6 498.5 452.5 Q 497.0 447.4 495.2 442.3 Q 493.4 437.2 491.3 432.1 Q 489.1 427.1 486.7 422.0 Q 484.3 417.0 481.5 412.0 Q 478.8 407.0 475.5 402.1 Q 472.3 397.2 468.7 392.4 Q 465.0 387.7 460.9 383.0 Q 456.8 378.3 452.3 373.8 Q 447.7 369.2 442.0 364.4 Q 436.2 359.6 429.3 354.6 Q 422.4 349.5 414.3 344.3 Q 406.3 339.0 397.0 333.5 Q 387.8 328.0 379.3 322.5 Q 370.9 317.0 363.4 311.5 Q 355.8 306.0 349.1 300.5 Q 342.4 295.0 336.5 289.5 Q 330.6 284.0 326.1 279.9 Q 321.5 275.8 318.3 273.0 Q 315.0 270.3 313.1 268.9 Q 311.1 267.5 310.5 267.5 Q 309.9 267.5 309.1 268.0 Q 308.3 268.4 307.3 269.3 Q 306.3 270.2 305.2 271.6 Q 304.1 272.9 302.8 274.8 Q 301.4 276.6 300.5 278.5 Q 299.5 280.5 298.8 282.7 Q 298.2 284.8 297.8 287.2 Q 297.5 289.5 297.5 292.0 Q 297.5 294.5 297.8 297.1 Q 298.1 299.6 298.8 302.3 Q 299.4 304.9 300.3 307.6 Q 301.3 310.3 302.5 313.0 Q 303.8 315.8 306.7 319.7 Q 309.6 323.6 314.3 328.8 Q 318.9 333.9 325.2 340.2 Q 331.5 346.5 339.5 354.0 Q 347.5 361.5 353.8 367.7 Q 360.2 373.8 364.9 378.6 Q 369.6 383.4 372.6 386.9 Q 375.6 390.4 377.0 392.5 Q 378.4 394.6 377.6 395.4 Q 376.9 396.1 374.1 395.4 Q 371.2 394.8 366.3 392.7 Q 361.3 390.7 354.3 387.3 Q 347.2 383.8 341.0 380.6 Q 334.8 377.5 329.4 374.6 Q 324.1 371.7 319.6 369.0 Q 315.1 366.4 311.5 364.0 Q 307.9 361.6 304.0 358.5 Q 300.2 355.3 296.2 351.3 Q 292.2 347.3 287.9 342.6 Q 283.7 337.8 279.3 332.3 Q 274.8 326.7 270.3 319.8 Q 265.8 312.9 261.3 304.7 Q 256.8 296.5 252.2 286.9 Q 247.6 277.4 243.0 266.5 Q 238.4 255.6 234.5 247.0 Q 230.7 238.3 227.6 231.9 Q 224.5 225.5 222.1 221.4 Q 219.8 217.2 218.3 215.3 Q 216.7 213.3 215.3 211.8 Q 213.8 210.2 212.6 209.1 Q 211.3 207.9 210.1 207.1 Q 209.0 206.4 208.0 206.0 Q 207.0 205.6 206.2 205.3 Q 205.4 205.1 204.9 204.9 Q 204.3 204.7 204.0 204.6 Q 203.6 204.5 203.5 204.5 Q 203.4 204.5 203.0 204.8 Q 202.7 205.1 202.1 205.7 Q 201.5 206.3 200.6 207.2 Z M 818.4 215.0 Q 816.2 217.4 813.3 220.8 Q 810.3 224.1 807.0 228.9 Q 803.8 233.8 800.2 240.2 Q 796.6 246.6 792.7 254.5 Q 788.8 262.5 784.5 272.0 Q 780.3 281.5 775.8 290.2 Q 771.4 298.9 766.8 306.8 Q 762.2 314.7 757.5 321.8 Q 752.7 328.9 747.8 335.3 Q 742.8 341.6 736.4 347.6 Q 730.1 353.6 722.3 359.3 Q 714.4 364.9 705.2 370.3 Q 695.9 375.7 685.3 380.8 Q 674.6 385.8 667.0 389.0 Q 659.4 392.2 654.9 393.4 Q 650.5 394.7 649.1 394.1 Q 647.8 393.5 649.5 391.0 Q 651.3 388.5 654.4 385.0 Q 657.6 381.4 662.1 376.9 Q 666.7 372.3 672.7 366.7 Q 678.6 361.1 686.0 354.5 Q 693.4 347.9 699.3 342.3 Q 705.1 336.8 709.5 332.4 Q 713.9 327.9 716.8 324.6 Q 719.6 321.3 721.0 319.0 Q 722.4 316.8 723.6 314.2 Q 724.8 311.6 725.8 308.8 Q 726.8 305.9 727.6 302.7 Q 728.4 299.5 729.0 296.0 Q 729.6 292.5 729.9 289.6 Q 730.2 286.7 730.2 284.4 Q 730.2 282.2 729.8 280.5 Q 729.4 278.8 728.8 277.8 Q 728.1 276.7 727.3 275.8 Q 726.5 275.0 725.6 274.3 Q 724.7 273.7 723.6 273.2 Q 722.6 272.8 721.5 272.5 Q 720.4 272.3 717.6 273.5 Q 714.8 274.8 710.4 277.6 Q 705.9 280.4 699.8 284.8 Q 693.8 289.1 686.0 295.0 Q 678.3 300.9 670.4 306.4 Q 662.6 312.0 654.8 317.3 Q 646.9 322.5 638.9 327.4 Q 631.0 332.4 623.0 337.0 Q 615.0 341.6 608.0 346.0 Q 601.0 350.5 595.1 354.7 Q 589.1 358.9 584.1 362.9 Q 579.2 366.9 575.3 370.8 Q 571.3 374.6 567.6 378.7 Q 563.8 382.8 560.3 387.3 Q 556.8 391.8 553.5 396.6 Q 550.1 401.4 547.0 406.5 Q 543.9 411.6 541.1 416.9 Q 538.3 422.3 535.8 427.8 Q 533.3 433.3 531.1 438.9 Q 528.9 444.6 527.0 450.5 Q 525.1 456.4 523.6 462.3 Q 522.1 468.3 520.9 474.3 Q 519.7 480.3 518.8 486.3 Q 518.0 492.4 517.5 498.5 Q 517.0 504.6 516.8 510.6 Q 516.6 516.6 516.7 522.4 Q 516.8 528.3 517.2 534.0 Q 517.6 539.7 518.3 545.3 Q 518.9 550.8 520.9 554.0 Q 522.9 557.2 526.2 557.9 Q 529.5 558.7 534.0 557.1 Q 538.6 555.5 544.5 551.5 Q 550.4 547.5 557.4 543.5 Q 564.4 539.4 572.6 535.4 Q 580.8 531.3 590.2 527.2 Q 599.5 523.1 610.0 519.0 Q 620.5 514.9 629.7 511.1 Q 638.9 507.3 646.9 503.8 Q 654.8 500.3 661.5 497.1 Q 668.1 493.9 673.5 491.0 Q 678.9 488.1 683.9 485.2 Q 688.9 482.3 693.6 479.4 Q 698.3 476.4 702.7 473.5 Q 707.0 470.5 711.0 467.5 Q 715.0 464.5 719.0 461.2 Q 723.0 457.9 727.1 454.3 Q 731.1 450.7 735.1 446.8 Q 739.2 442.9 743.3 438.8 Q 747.3 434.6 751.5 429.8 Q 755.6 425.0 759.8 419.6 Q 764.0 414.2 768.3 408.1 Q 772.6 402.1 777.0 395.5 Q 781.4 388.9 785.5 381.9 Q 789.6 374.9 793.4 367.5 Q 797.2 360.1 800.7 352.4 Q 804.3 344.6 807.5 336.5 Q 810.8 328.4 813.7 319.6 Q 816.7 310.8 819.4 301.3 Q 822.1 291.8 824.5 281.6 Q 826.9 271.4 829.0 260.5 Q 831.1 249.6 832.6 241.2 Q 834.1 232.8 834.9 226.8 Q 835.8 220.8 836.0 217.3 Q 836.2 213.8 835.8 212.8 Q 835.3 211.7 834.7 210.9 Q 834.2 210.0 833.4 209.4 Q 832.7 208.8 831.9 208.5 Q 831.0 208.1 830.0 208.0 Q 829.0 207.9 828.2 207.8 Q 827.4 207.7 826.9 207.6 Q 826.3 207.6 826.0 207.5 Q 825.6 207.5 825.5 207.5 Q 825.4 207.5 824.5 208.3 Q 823.7 209.2 822.2 210.8 Q 820.7 212.5 818.4 215.0 Z"/>
<g transform="translate(204.3,-66.9) scale(0.58)">
<path d="M 540 805 C 447.7 694.95 362.5 631.05 362.5 549.4 C 362.5 465.975 428.175 450 493.85 450 C 515.15 450 534.675 471.3 540 499.7 C 545.325 471.3 564.85 450 586.15 450 C 651.825 450 717.5 465.975 717.5 549.4 C 717.5 631.05 632.3 694.95 540 805 Z" fill="#FAF9F5"/>
<circle fill="#6F8764" cx="540" cy="415" r="92"/>
<circle fill="#FAF9F5" cx="540" cy="415" r="82"/>
<path d="M 540 682 C 500.48 634.88 464.0 607.52 464.0 572.56 C 464.0 536.84 492.12 530 520.24 530 C 529.36 530 537.72 539.12 540 551.28 C 542.28 539.12 550.64 530 559.76 530 C 587.88 530 616.0 536.84 616.0 572.56 C 616.0 607.52 579.52 634.88 540 682 Z" fill="#EF7F6D" stroke="#6F8764" stroke-width="18" stroke-linejoin="round"/>
</g>

</g>
<g id="wordmark">
<!-- wordmark: Nunito Sans, converted to outlines -->
<g transform="translate(232.95 1990) scale(0.318000 -0.318000)"><path fill="#FAF9F5" d="M247 0V598H5V705H617V598H375V0Z"/></g>
<g transform="translate(430.43 1990) scale(0.318000 -0.318000)"><path fill="#FAF9F5" d="M65 0V705H190V391H176Q198 444 244.5 471.5Q291 499 350 499Q409 499 447.0 477.0Q485 455 504.0 410.5Q523 366 523 298V0H398V292Q398 330 388.5 354.0Q379 378 359.5 389.5Q340 401 310 401Q274 401 247.0 385.5Q220 370 205.0 341.5Q190 313 190 275V0Z"/></g>
<g transform="translate(616.46 1990) scale(0.318000 -0.318000)"><path fill="#FAF9F5" d="M306 -10Q223 -10 163.0 21.0Q103 52 70.5 109.0Q38 166 38 244Q38 320 69.5 377.0Q101 434 156.5 466.5Q212 499 283 499Q353 499 403.0 469.0Q453 439 480.5 384.0Q508 329 508 253V216H139V288H420L404 273Q404 341 374.0 377.5Q344 414 288 414Q246 414 216.5 394.5Q187 375 171.5 339.5Q156 304 156 255V248Q156 193 173.0 157.0Q190 121 224.0 103.0Q258 85 308 85Q349 85 390.0 97.5Q431 110 465 137L500 53Q465 24 412.0 7.0Q359 -10 306 -10Z"/></g>
<g transform="translate(874.68 1990) scale(0.318000 -0.318000)"><path fill="#FAF9F5" d="M405 -10Q295 -10 216.5 34.5Q138 79 96.0 160.5Q54 242 54 353Q54 464 96.0 545.0Q138 626 216.5 670.5Q295 715 405 715Q476 715 539.5 693.0Q603 671 644 630L602 528Q557 566 510.0 583.5Q463 601 409 601Q302 601 246.0 536.5Q190 472 190 353Q190 234 246.0 169.0Q302 104 409 104Q463 104 510.0 121.5Q557 139 602 177L644 75Q603 35 539.5 12.5Q476 -10 405 -10Z"/></g>
<g transform="translate(1090.60 1990) scale(0.318000 -0.318000)"><path fill="#FAF9F5" d="M65 0V705H190V391H176Q198 444 244.5 471.5Q291 499 350 499Q409 499 447.0 477.0Q485 455 504.0 410.5Q523 366 523 298V0H398V292Q398 330 388.5 354.0Q379 378 359.5 389.5Q340 401 310 401Q274 401 247.0 385.5Q220 370 205.0 341.5Q190 313 190 275V0Z"/></g>
<g transform="translate(1276.63 1990) scale(0.318000 -0.318000)"><path fill="#FAF9F5" d="M57 594V716H197V594ZM65 0V489H190V0Z"/></g>
<g transform="translate(1357.72 1990) scale(0.318000 -0.318000)"><path fill="#FAF9F5" d="M235 -10Q148 -10 106.5 37.5Q65 85 65 177V705H190V183Q190 154 198.5 133.5Q207 113 224.0 103.0Q241 93 266 93Q277 93 288.0 94.0Q299 95 309 98L307 -1Q289 -5 271.5 -7.5Q254 -10 235 -10Z"/></g>
<g transform="translate(1459.16 1990) scale(0.318000 -0.318000)"><path fill="#FAF9F5" d="M253 -10Q189 -10 140.5 21.0Q92 52 65.0 109.5Q38 167 38 245Q38 324 65.0 380.5Q92 437 140.5 468.0Q189 499 253 499Q314 499 359.5 469.0Q405 439 421 390H410V705H535V0H413V104H422Q407 52 361.0 21.0Q315 -10 253 -10ZM288 85Q344 85 378.0 125.5Q412 166 412 245Q412 325 378.0 364.5Q344 404 288 404Q232 404 198.0 364.5Q164 325 164 245Q164 166 198.0 125.5Q232 85 288 85Z"/></g>
<g transform="translate(1649.96 1990) scale(0.318000 -0.318000)"><path fill="#FAF9F5" d="M65 0V489H187V371H177Q191 431 232.0 462.5Q273 494 341 499L379 502L387 396L315 389Q254 383 223.0 351.5Q192 320 192 263V0Z"/></g>
<g transform="translate(1774.61 1990) scale(0.318000 -0.318000)"><path fill="#FAF9F5" d="M306 -10Q223 -10 163.0 21.0Q103 52 70.5 109.0Q38 166 38 244Q38 320 69.5 377.0Q101 434 156.5 466.5Q212 499 283 499Q353 499 403.0 469.0Q453 439 480.5 384.0Q508 329 508 253V216H139V288H420L404 273Q404 341 374.0 377.5Q344 414 288 414Q246 414 216.5 394.5Q187 375 171.5 339.5Q156 304 156 255V248Q156 193 173.0 157.0Q190 121 224.0 103.0Q258 85 308 85Q349 85 390.0 97.5Q431 110 465 137L500 53Q465 24 412.0 7.0Q359 -10 306 -10Z"/></g>
<g transform="translate(1946.97 1990) scale(0.318000 -0.318000)"><path fill="#FAF9F5" d="M65 0V489H187V391H176Q198 444 244.5 471.5Q291 499 350 499Q409 499 447.0 477.0Q485 455 504.0 410.5Q523 366 523 298V0H398V292Q398 330 388.5 354.0Q379 378 359.5 389.5Q340 401 310 401Q274 401 247.0 385.5Q220 370 205.0 341.5Q190 313 190 275V0Z"/></g>
<g transform="translate(2133.00 1990) scale(0.318000 -0.318000)"><path fill="#FAF9F5" d="M115 433 64 473Q85 495 97.5 514.5Q110 534 115.5 553.5Q121 573 121 594L152 566H54V705H194V614Q194 580 186.5 549.5Q179 519 162.0 490.5Q145 462 115 433Z"/></g>
<g transform="translate(2211.86 1990) scale(0.318000 -0.318000)"><path fill="#FAF9F5" d="M244 -10Q203 -10 164.5 -3.0Q126 4 94.0 16.5Q62 29 38 48L70 130Q95 114 124.0 102.0Q153 90 184.0 84.0Q215 78 245 78Q293 78 316.5 94.5Q340 111 340 138Q340 161 324.5 173.5Q309 186 278 192L178 211Q116 223 83.5 256.5Q51 290 51 343Q51 391 77.5 426.0Q104 461 151.0 480.0Q198 499 259 499Q294 499 327.0 492.5Q360 486 389.5 473.5Q419 461 441 441L407 359Q388 375 363.0 386.5Q338 398 311.5 404.5Q285 411 260 411Q211 411 187.5 394.0Q164 377 164 349Q164 328 178.0 314.0Q192 300 221 295L321 276Q386 264 419.5 232.0Q453 200 453 146Q453 97 427.0 62.0Q401 27 354.0 8.5Q307 -10 244 -10Z"/></g>
<g transform="translate(296.30 2245) scale(0.200000 -0.200000)"><path fill="#FAF9F5" d="M398 -9Q291 -9 215.0 35.0Q139 79 98.5 160.5Q58 242 58 353Q58 464 98.5 545.0Q139 626 215.0 670.0Q291 714 398 714Q470 714 532.5 691.5Q595 669 637 627L601 544Q555 585 506.5 603.5Q458 622 401 622Q287 622 227.0 552.0Q167 482 167 353Q167 224 227.0 153.5Q287 83 401 83Q458 83 506.5 101.5Q555 120 601 161L637 78Q595 36 532.5 13.5Q470 -9 398 -9Z"/></g>
<g transform="translate(521.50 2245) scale(0.200000 -0.200000)"><path fill="#FAF9F5" d="M388 -9Q313 -9 252.0 16.0Q191 41 147.5 89.0Q104 137 81.0 203.5Q58 270 58 353Q58 436 81.0 502.5Q104 569 147.0 616.5Q190 664 251.0 689.0Q312 714 388 714Q463 714 524.0 689.0Q585 664 628.5 617.0Q672 570 695.0 503.5Q718 437 718 354Q718 271 695.0 204.0Q672 137 628.5 89.0Q585 41 524.0 16.0Q463 -9 388 -9ZM388 81Q458 81 507.5 113.0Q557 145 583.5 206.0Q610 267 610 353Q610 439 584.0 500.0Q558 561 508.5 592.5Q459 624 388 624Q318 624 268.5 592.5Q219 561 192.5 500.0Q166 439 166 353Q166 268 192.5 206.5Q219 145 268.5 113.0Q318 81 388 81Z"/></g>
<g transform="translate(766.50 2245) scale(0.200000 -0.200000)"><path fill="#FAF9F5" d="M82 0V705H186V89H535V0Z"/></g>
<g transform="translate(966.90 2245) scale(0.200000 -0.200000)"><path fill="#FAF9F5" d="M82 0V705H186V89H535V0Z"/></g>
<g transform="translate(1167.30 2245) scale(0.200000 -0.200000)"><path fill="#FAF9F5" d="M82 0V705H538V621H182V400H517V316H182V84H538V0Z"/></g>
<g transform="translate(1375.10 2245) scale(0.200000 -0.200000)"><path fill="#FAF9F5" d="M398 -9Q291 -9 215.0 35.0Q139 79 98.5 160.5Q58 242 58 353Q58 464 98.5 545.0Q139 626 215.0 670.0Q291 714 398 714Q470 714 532.5 691.5Q595 669 637 627L601 544Q555 585 506.5 603.5Q458 622 401 622Q287 622 227.0 552.0Q167 482 167 353Q167 224 227.0 153.5Q287 83 401 83Q458 83 506.5 101.5Q555 120 601 161L637 78Q595 36 532.5 13.5Q470 -9 398 -9Z"/></g>
<g transform="translate(1600.30 2245) scale(0.200000 -0.200000)"><path fill="#FAF9F5" d="M254 0V618H4V705H607V618H357V0Z"/></g>
<g transform="translate(1812.50 2245) scale(0.200000 -0.200000)"><path fill="#FAF9F5" d="M82 0V705H186V0Z"/></g>
<g transform="translate(1955.90 2245) scale(0.200000 -0.200000)"><path fill="#FAF9F5" d="M305 0 -6 705H105L371 88H334L599 705H705L394 0Z"/></g>
<g transform="translate(2185.90 2245) scale(0.200000 -0.200000)"><path fill="#FAF9F5" d="M82 0V705H538V621H182V400H517V316H182V84H538V0Z"/></g>
<g transform="translate(699.66 2440) scale(0.118000 -0.118000)"><path fill="#FAF9F5" d="M388 -9Q313 -9 252.0 16.0Q191 41 147.5 89.0Q104 137 81.0 203.5Q58 270 58 353Q58 436 81.0 502.5Q104 569 147.0 616.5Q190 664 251.0 689.0Q312 714 388 714Q463 714 524.0 689.0Q585 664 628.5 617.0Q672 570 695.0 503.5Q718 437 718 354Q718 271 695.0 204.0Q672 137 628.5 89.0Q585 41 524.0 16.0Q463 -9 388 -9ZM388 81Q458 81 507.5 113.0Q557 145 583.5 206.0Q610 267 610 353Q610 439 584.0 500.0Q558 561 508.5 592.5Q459 624 388 624Q318 624 268.5 592.5Q219 561 192.5 500.0Q166 439 166 353Q166 268 192.5 206.5Q219 145 268.5 113.0Q318 81 388 81Z"/></g>
<g transform="translate(847.11 2440) scale(0.118000 -0.118000)"><path fill="#FAF9F5" d="M82 0V705H530V621H186V396H509V312H186V0Z"/></g>
<g transform="translate(1055.52 2440) scale(0.118000 -0.118000)"><path fill="#FAF9F5" d="M82 0V705H530V621H186V396H509V312H186V0Z"/></g>
<g transform="translate(1176.89 2440) scale(0.118000 -0.118000)"><path fill="#FAF9F5" d="M82 0V705H186V89H535V0Z"/></g>
<g transform="translate(1298.03 2440) scale(0.118000 -0.118000)"><path fill="#FAF9F5" d="M388 -9Q313 -9 252.0 16.0Q191 41 147.5 89.0Q104 137 81.0 203.5Q58 270 58 353Q58 436 81.0 502.5Q104 569 147.0 616.5Q190 664 251.0 689.0Q312 714 388 714Q463 714 524.0 689.0Q585 664 628.5 617.0Q672 570 695.0 503.5Q718 437 718 354Q718 271 695.0 204.0Q672 137 628.5 89.0Q585 41 524.0 16.0Q463 -9 388 -9ZM388 81Q458 81 507.5 113.0Q557 145 583.5 206.0Q610 267 610 353Q610 439 584.0 500.0Q558 561 508.5 592.5Q459 624 388 624Q318 624 268.5 592.5Q219 561 192.5 500.0Q166 439 166 353Q166 268 192.5 206.5Q219 145 268.5 113.0Q318 81 388 81Z"/></g>
<g transform="translate(1445.48 2440) scale(0.118000 -0.118000)"><path fill="#FAF9F5" d="M82 0V705H374Q488 705 550.0 651.0Q612 597 612 498Q612 434 584.0 388.0Q556 342 502.5 318.0Q449 294 374 294L383 308H409Q449 308 478.5 288.0Q508 268 532 224L654 0H540L418 225Q404 251 387.5 265.5Q371 280 349.5 285.5Q328 291 299 291H186V0ZM186 369H357Q433 369 472.0 401.0Q511 433 511 496Q511 558 472.0 590.0Q433 622 357 622H186Z"/></g>
<g transform="translate(1581.36 2440) scale(0.118000 -0.118000)"><path fill="#FAF9F5" d="M82 0V705H186V0Z"/></g>
<g transform="translate(1668.87 2440) scale(0.118000 -0.118000)"><path fill="#FAF9F5" d="M82 0V705H331Q447 705 528.0 664.5Q609 624 651.5 545.5Q694 467 694 353Q694 239 651.5 160.5Q609 82 528.0 41.0Q447 0 331 0ZM186 87H325Q456 87 521.0 153.5Q586 220 586 353Q586 486 520.5 552.0Q455 618 325 618H186Z"/></g>
<g transform="translate(1813.49 2440) scale(0.118000 -0.118000)"><path fill="#FAF9F5" d="M11 0 325 705H411L726 0H620L534 200L581 172H155L201 200L116 0ZM367 590 216 232 191 256H544L521 232L369 590Z"/></g>
<rect x="140" y="2400" width="380" height="12" fill="#FAF9F5"/>
<rect x="2080" y="2400" width="380" height="12" fill="#FAF9F5"/>
</g>

</svg>