<?xml version="1.0" encoding="utf-8"?>
<!-- Generator: Adobe Illustrator 26.5.0, SVG Export Plug-In . SVG Version: 6.00 Build 0)  -->
<svg version="1.1" id="Layer_1" xmlns="http://www.w3.org/2000/svg" xmlns:xlink="http://www.w3.org/1999/xlink" x="0px" y="0px"
	 viewBox="0 0 1080 1080" style="enable-background:new 0 0 1080 1080;" xml:space="preserve">
<style type="text/css">
	.st0{fill:#1E2B24;}
	.st1{fill:#FFFFFF;}
	.st2{fill:#EF7F6D;}
</style>
<rect x="0" class="st0" width="1080" height="1080"/>
<g>
	<path class="st1" d="M491.2,176.9c0,5.9,1.1,11.6,3,16.8c-6.6,1.5-13.1,3.3-19.3,5.5c-49.5,17.1-86.9,50.7-109.6,92
		c-5-3-10.7-5.1-16.8-5.9c26.6-55.5,77.7-99.7,143.1-114.3C491.4,173,491.2,174.9,491.2,176.9z"/>
	<path class="st1" d="M728.1,285.4c-6.1,0.9-11.7,2.9-16.7,6c-22.7-41.4-60.2-75.1-109.7-92.2l-6.1-2c-2.2-0.6-7.3-2-9.3-2.6
		c-0.5-0.1-1-0.2-1.5-0.4c2.1-5.4,3.2-11.2,3.2-17.3c0-1.8-0.1-3.6-0.3-5.3c4.9,1.2,9.9,2.6,14.6,4c2.1,0.8,8.2,2.8,10.2,3.5
		c3.2,1.4,6.9,2.7,10,4.1C670.9,203.9,707.2,241.3,728.1,285.4z"/>
	<path class="st1" d="M372.5,519.6c-5.4,0-10.5-2.6-13.6-7c-29-41.2-41.7-92.6-33-143.3c5.2,2.1,10.8,3.3,16.8,3.3
		c0.5,0,1.1,0,1.6,0c-5.6,26.9-5,55.4,2.8,84.1c5.7,21.1,15.3,40.7,27.8,58.3C376.3,517,374.9,519.6,372.5,519.6z"/>
	<path class="st1" d="M736,486.1c-0.9,1.7-2.2,3.1-3.7,4.1c-1.6,1-3.4,1.5-5.3,1.5c-3,0-5-3.1-3.7-5.9c0.7-1.5,0.5-1.1,1.7-3.8
		c2.9-6.4,5.2-13,7.3-19.7c2.5-8.3,4.5-16.9,5.8-25.5c0.7-4.4,1.2-8.8,1.5-13.2c1.4-17.7,0.2-34.7-3.2-51c6-0.3,11.7-1.8,16.8-4.2
		C760,408.2,754.3,449.4,736,486.1z"/>
	<g id="circles_00000166657777936218434390000004194489450678868153_">
		<circle class="st1" cx="342.7" cy="328.8" r="33.1"/>
		<circle class="st1" cx="734.2" cy="328.8" r="33.1"/>
		<circle class="st1" cx="539.6" cy="176.9" r="37.6"/>
		<circle class="st1" cx="538.3" cy="334.6" r="45.4"/>
	</g>
	<path class="st1" d="M328.3,564.7c0,0,15.9-6.5,38.8-18.1c22.9-11.6,47.9-25.2,80.5-25.2s43.1,11,71.9,19.4
		c28.8,8.4,46.4,10.8,68.6,6.7c22.1-4.2,36.5-9.6,42.4,3.6s-11.6,31.3-84.1,40.1c-16.5,2.2-39.2-1.2-39.2-1.2s16.1,14.6,66.4,14.6
		c50.3,0,88.4-29.6,108.8-49.1c29.7-22.9,53.4-66,74.6-64.7c21.2,1.3-9.6,78.6-90.7,137.5c-85.4,58.5-183.9,40.2-235.9,17.3
		S345.4,585.6,328.3,564.7z"/>
	<path class="st1" d="M651.7,329.6c-2.8-2.1-6-3.2-9.3-3.2c-4.2,0-8.4,1.8-11.4,5.1l-4.7,5.4c0,0-19.4,25.6-34.1,38.6
		c-14.6,13-33.4,22.3-57.2,22.3c-23.7,0-40.1-11.7-59.2-30.7c-10.5-10.5-20.4-23.8-27.2-33.7c-5.1-7.4-15.4-8.8-22.3-3.1
		c-3.2,2.6-4.6,6.7-4.6,11c0,3.8,1.1,7.8,3.2,10.9c7.9,12,18.1,28.4,22.6,35.9c7,11.8,24.3,33.6,24.3,73.7
		c-0.4,33.8-4.1,49.3-4.1,49.3s22.1,5.6,39.6,13.2c17.5,7.6,38,13.2,54.9,13.2c16.9,0,37.8-3.1,44.8-6.4c0,0-9.9-50.2-2.7-83.4
		c4.1-19,6.6-28.4,14.2-42.8c5.7-10.8,14.4-25,28.8-45c1.7-2.3,4.1-5.5,5.5-7.5C657.9,345.9,658.2,334.6,651.7,329.6z M575.3,453.1
		c0,6.8-3.5,15.3-9,22.2c-9.1,11.5-22.7,21.3-23.3,21.7l-5.5,3.9l-5.5-3.9c-0.6-0.4-14.2-10.2-23.3-21.8c-5.5-7-9-15.5-9-22.2
		c-0.1-2.7,0.3-11.2,6.3-17.4c2.6-2.7,7.3-5.9,14.8-5.9c6.7,0,12.4,2.7,16.7,6c4.3-3.3,10-6,16.7-6c7.5,0,12.2,3.2,14.8,5.9
		C575,441.9,575.3,450.5,575.3,453.1z"/>
	<g>
		<g>
			<path class="st1" d="M186.7,787.8v-65.2h-26.4v-12.2h67.4v12.2h-26.4v65.2H186.7z"/>
			<path class="st1" d="M236.9,787.8v-77.3h13.9v33.8H250c1.7-3.7,4.2-6.6,7.6-8.7c3.4-2,7.2-3.1,11.5-3.1c4.4,0,8,0.8,11,2.5
				c2.9,1.6,5.1,4.2,6.6,7.5c1.5,3.4,2.2,7.6,2.2,12.7v32.6h-14.3v-31.9c0-2.7-0.3-4.9-1-6.7c-0.7-1.8-1.8-3.1-3.2-4
				c-1.5-0.9-3.4-1.3-5.7-1.3c-2.6,0-5,0.6-7,1.8c-2,1.2-3.6,2.8-4.8,4.9c-1.1,2.1-1.7,4.5-1.7,7.2v30H236.9z"/>
			<path class="st1" d="M331.9,788.9c-6.4,0-11.9-1.1-16.5-3.4c-4.6-2.3-8.1-5.5-10.5-9.8c-2.4-4.2-3.6-9.3-3.6-15
				c0-5.5,1.2-10.3,3.5-14.5c2.3-4.2,5.5-7.5,9.7-10c4.2-2.4,9-3.7,14.6-3.7c5.2,0,9.7,1.1,13.5,3.3c3.8,2.2,6.7,5.4,8.8,9.5
				c2.1,4.1,3.1,9.1,3.1,14.8v4.3h-41.8V756h31.7l-1.8,1.8c0-5-1.2-8.9-3.5-11.5c-2.3-2.6-5.6-3.9-9.8-3.9c-3,0-5.6,0.7-7.8,2
				c-2.2,1.4-3.9,3.3-5.1,5.8c-1.2,2.5-1.8,5.5-1.8,9.1v1.1c0,4,0.7,7.3,2,9.9c1.3,2.6,3.3,4.5,5.9,5.8c2.6,1.2,5.9,1.9,9.7,1.9
				c2.9,0,5.9-0.4,8.9-1.2c3-0.8,5.8-2.2,8.3-4.1l4,9.7c-2.7,2.1-6,3.7-9.9,4.9C339.5,788.3,335.7,788.9,331.9,788.9z"/>
			<path class="st1" d="M435.1,788.9c-7.9,0-14.7-1.6-20.5-4.8c-5.7-3.2-10.2-7.8-13.3-13.8c-3.1-6-4.7-13-4.7-21.2
				c0-8.2,1.6-15.2,4.7-21.2c3.1-5.9,7.5-10.5,13.2-13.7c5.7-3.2,12.5-4.8,20.5-4.8c5.3,0,10.2,0.8,14.8,2.3
				c4.6,1.5,8.4,3.8,11.5,6.8l-4.8,11.4c-3.3-2.8-6.6-4.8-10-6c-3.4-1.2-7-1.8-11-1.8c-7.5,0-13.4,2.3-17.5,7
				c-4.1,4.6-6.2,11.3-6.2,20c0,8.7,2,15.4,6.1,20.1c4.1,4.7,9.9,7,17.6,7c4,0,7.6-0.6,11-1.8c3.4-1.2,6.7-3.2,10-6l4.8,11.4
				c-3.1,2.9-6.9,5.2-11.5,6.7C445.3,788.1,440.4,788.9,435.1,788.9z"/>
			<path class="st1" d="M474.1,787.8v-77.3H488v33.8h-0.8c1.7-3.7,4.2-6.6,7.6-8.7c3.4-2,7.2-3.1,11.5-3.1c4.4,0,8,0.8,11,2.5
				c2.9,1.6,5.1,4.2,6.6,7.5c1.5,3.4,2.2,7.6,2.2,12.7v32.6h-14.3v-31.9c0-2.7-0.3-4.9-1-6.7c-0.7-1.8-1.8-3.1-3.2-4
				c-1.5-0.9-3.4-1.3-5.7-1.3c-2.6,0-5,0.6-7,1.8c-2,1.2-3.6,2.8-4.8,4.9c-1.1,2.1-1.7,4.5-1.7,7.2v30H474.1z"/>
			<path class="st1" d="M540.4,722.4v-14h16.1v14H540.4z M541.4,787.8v-54.2h14.3v54.2H541.4z"/>
			<path class="st1" d="M590.1,788.9c-6.3,0-11-1.7-14.2-5.1c-3.1-3.4-4.7-8.4-4.7-14.9v-58.5h14.3V768c0,2,0.3,3.8,0.9,5.2
				c0.6,1.4,1.5,2.5,2.6,3.2c1.2,0.7,2.6,1.1,4.3,1.1c0.9,0,1.9-0.1,2.7-0.2c0.9-0.1,1.8-0.3,2.6-0.5l0.2,10.9
				c-1.5,0.4-2.9,0.7-4.3,0.9C593.2,788.8,591.7,788.9,590.1,788.9z"/>
			<path class="st1" d="M628.8,788.9c-4.9,0-9.2-1.2-12.8-3.5c-3.7-2.3-6.5-5.6-8.5-9.9c-2-4.2-3-9.2-3-14.8c0-5.7,1-10.7,3-14.9
				c2-4.2,4.8-7.5,8.4-9.8c3.6-2.3,7.8-3.5,12.7-3.5c4.5,0,8.3,1.1,11.6,3.2c3.3,2.1,5.5,4.9,6.9,8.3h-0.7v-33.6h14.3v77.3h-13.4
				v-11.3h0.4c-1.4,3.9-3.7,6.9-7.1,9.1C637.2,787.8,633.3,788.9,628.8,788.9z M632.6,778c4.3,0,7.7-1.5,10.2-4.5
				c2.5-3,3.7-7.3,3.7-12.8c0-5.6-1.2-9.9-3.7-12.8c-2.5-2.9-5.9-4.4-10.2-4.4c-4.2,0-7.6,1.5-10.1,4.4c-2.5,2.9-3.8,7.2-3.8,12.8
				c0,5.6,1.3,9.8,3.8,12.8C625,776.5,628.3,778,632.6,778z"/>
			<path class="st1" d="M676.1,787.8v-54.2h13.3v13.2H689c1.1-4.2,3.2-7.6,6.2-10c3-2.4,7-3.8,11.8-4.1l5.2-0.4l1,12.5l-8.9,0.8
				c-4.5,0.4-7.9,1.9-10.2,4.3c-2.3,2.4-3.5,5.6-3.5,9.7v28.3H676.1z"/>
			<path class="st1" d="M749,788.9c-6.4,0-11.9-1.1-16.5-3.4c-4.6-2.3-8.1-5.5-10.5-9.8c-2.4-4.2-3.6-9.3-3.6-15
				c0-5.5,1.2-10.3,3.5-14.5c2.3-4.2,5.5-7.5,9.7-10c4.2-2.4,9-3.7,14.6-3.7c5.2,0,9.7,1.1,13.5,3.3c3.8,2.2,6.7,5.4,8.8,9.5
				c2.1,4.1,3.1,9.1,3.1,14.8v4.3h-41.8V756h31.7l-1.8,1.8c0-5-1.2-8.9-3.5-11.5c-2.3-2.6-5.6-3.9-9.8-3.9c-3,0-5.6,0.7-7.8,2
				c-2.2,1.4-3.9,3.3-5.1,5.8c-1.2,2.5-1.8,5.5-1.8,9.1v1.1c0,4,0.7,7.3,2,9.9c1.3,2.6,3.3,4.5,5.9,5.8c2.6,1.2,5.9,1.9,9.7,1.9
				c2.9,0,5.9-0.4,8.9-1.2c3-0.8,5.8-2.2,8.3-4.1l4,9.7c-2.7,2.1-6,3.7-9.9,4.9C756.7,788.3,752.8,788.9,749,788.9z"/>
			<path class="st1" d="M784,787.8v-54.2h13.5v11h-0.5c1.7-3.9,4.2-6.9,7.7-8.9c3.4-2.1,7.3-3.1,11.6-3.1c4.4,0,8,0.8,11,2.5
				c2.9,1.6,5.1,4.2,6.6,7.5c1.5,3.4,2.2,7.6,2.2,12.7v32.6h-14.3v-31.9c0-2.7-0.3-4.9-1-6.7c-0.7-1.8-1.8-3.1-3.2-4
				c-1.5-0.9-3.4-1.3-5.7-1.3c-2.6,0-5,0.6-7,1.8c-2,1.2-3.6,2.8-4.8,4.9c-1.1,2.1-1.7,4.5-1.7,7.2v30H784z"/>
			<path class="st1" d="M855.4,742.2l-6.1-4.8c1.5-1.5,2.8-3.1,3.7-4.6c0.9-1.5,1.6-3.1,2.1-4.7c0.5-1.6,0.7-3.2,0.8-4.8l3.3,2.9
				h-11.2v-15.7h16.3v10.8c0,2.6-0.3,5.2-0.9,7.6c-0.6,2.4-1.5,4.7-2.7,6.9C859.4,737.9,857.7,740,855.4,742.2z"/>
			<path class="st1" d="M895.9,788.9c-3.1,0-6.2-0.3-9.1-0.8c-2.9-0.5-5.6-1.2-8.1-2.1c-2.5-0.9-4.6-2-6.4-3.4l3.7-9.5
				c1.8,1.2,3.8,2.2,6,3c2.2,0.8,4.5,1.5,6.8,1.9c2.3,0.4,4.6,0.6,6.8,0.6c3.8,0,6.6-0.5,8.5-1.6c1.9-1.1,2.8-2.6,2.8-4.6
				c0-1.7-0.6-3-1.7-3.8c-1.1-0.9-2.9-1.5-5.4-1.9l-11.5-2c-4.8-0.8-8.5-2.5-11-5.2c-2.5-2.6-3.7-5.9-3.7-9.9c0-3.4,0.9-6.4,2.9-9
				c1.9-2.6,4.6-4.6,8.2-6c3.6-1.5,7.8-2.2,12.7-2.2c2.6,0,5.2,0.2,7.8,0.7c2.6,0.5,5,1.2,7.2,2.1c2.2,0.9,4.2,2.1,5.8,3.5l-3.9,9.5
				c-1.4-1.2-3-2.2-4.9-3c-1.9-0.8-3.9-1.4-5.9-1.9c-2-0.4-4-0.7-5.9-0.7c-3.8,0-6.6,0.6-8.4,1.7c-1.8,1.1-2.7,2.7-2.7,4.7
				c0,1.6,0.5,2.9,1.6,3.8c1.1,0.9,2.7,1.6,5,1.9l11.3,2c5.2,0.9,9.1,2.5,11.6,5c2.6,2.5,3.8,5.8,3.8,9.9c0,3.6-1,6.7-3,9.2
				c-2,2.6-4.7,4.5-8.3,5.9C904.9,788.2,900.7,788.9,895.9,788.9z"/>
		</g>
		<g>
			<path class="st1" d="M203.8,872.7c-5.1,0-9.5-1.1-13.2-3.2c-3.7-2.1-6.5-5.2-8.5-9.1c-2-4-3-8.6-3-14.1c0-5.4,1-10.1,3-14
				c2-3.9,4.8-6.9,8.5-9.1c3.7-2.1,8.1-3.2,13.2-3.2c3.5,0,6.8,0.5,9.8,1.6c3,1.1,5.5,2.6,7.6,4.7l-2.7,6.1
				c-2.2-1.9-4.5-3.3-6.8-4.1c-2.3-0.9-4.9-1.3-7.6-1.3c-5.3,0-9.5,1.7-12.4,5c-2.9,3.3-4.4,8.1-4.4,14.4c0,6.3,1.5,11.1,4.4,14.4
				c2.9,3.3,7,5,12.4,5c2.8,0,5.3-0.4,7.6-1.3c2.3-0.9,4.6-2.3,6.8-4.1l2.7,6.1c-2,2-4.6,3.6-7.6,4.7
				C210.6,872.1,207.4,872.7,203.8,872.7z"/>
			<path class="st1" d="M285.7,872.6c-3.7,0-7-0.6-10-1.8c-3-1.2-5.5-3-7.6-5.3c-2.1-2.3-3.8-5.1-4.9-8.3c-1.1-3.2-1.7-6.9-1.7-10.9
				c0-4.1,0.6-7.7,1.7-10.9c1.1-3.2,2.7-6,4.8-8.3c2.1-2.3,4.7-4,7.6-5.2c3-1.2,6.3-1.8,10-1.8c3.7,0,7.1,0.6,10.1,1.8
				c3,1.2,5.5,3,7.6,5.2c2.1,2.3,3.7,5,4.8,8.3c1.1,3.2,1.7,6.9,1.7,10.9c0,4.1-0.6,7.7-1.7,11c-1.1,3.3-2.7,6-4.8,8.3
				c-2.1,2.3-4.7,4.1-7.6,5.3C292.8,872,289.4,872.6,285.7,872.6z M285.7,865.8c3.4,0,6.4-0.8,8.7-2.3s4.2-3.7,5.5-6.7
				c1.3-2.9,1.9-6.5,1.9-10.6c0-4.2-0.6-7.7-1.9-10.6c-1.3-2.9-3.1-5.1-5.5-6.6c-2.4-1.5-5.3-2.3-8.8-2.3c-3.3,0-6.2,0.8-8.7,2.3
				c-2.4,1.5-4.3,3.7-5.5,6.6c-1.3,2.9-1.9,6.5-1.9,10.6c0,4.1,0.6,7.7,1.9,10.6c1.3,2.9,3.1,5.2,5.5,6.7
				C279.5,865.1,282.3,865.8,285.7,865.8z"/>
			<path class="st1" d="M355,872v-51.3h7.7v44.6h25.4v6.7H355z"/>
			<path class="st1" d="M430.2,872v-51.3h7.7v44.6h25.4v6.7H430.2z"/>
			<path class="st1" d="M505.4,872v-51.3h33.7v6.5H513v15.6h24.6v6.5H513v16.3h26.1v6.5H505.4z"/>
			<path class="st1" d="M606.5,872.7c-5.1,0-9.5-1.1-13.2-3.2c-3.7-2.1-6.5-5.2-8.5-9.1c-2-4-3-8.6-3-14.1c0-5.4,1-10.1,3-14
				c2-3.9,4.8-6.9,8.5-9.1c3.7-2.1,8.1-3.2,13.2-3.2c3.5,0,6.8,0.5,9.8,1.6c3,1.1,5.5,2.6,7.6,4.7l-2.7,6.1
				c-2.2-1.9-4.5-3.3-6.8-4.1c-2.3-0.9-4.9-1.3-7.6-1.3c-5.3,0-9.5,1.7-12.4,5c-2.9,3.3-4.4,8.1-4.4,14.4c0,6.3,1.5,11.1,4.4,14.4
				c2.9,3.3,7,5,12.4,5c2.8,0,5.3-0.4,7.6-1.3c2.3-0.9,4.6-2.3,6.8-4.1l2.7,6.1c-2,2-4.6,3.6-7.6,4.7
				C613.4,872.1,610.1,872.7,606.5,872.7z"/>
			<path class="st1" d="M679.5,872v-44.7h-18.1v-6.6h44v6.6h-18.1V872H679.5z"/>
			<path class="st1" d="M746.5,872v-51.3h7.7V872H746.5z"/>
			<path class="st1" d="M816.7,872l-22.5-51.3h8.4l18.5,43.4h-1.7l18.4-43.4h8.1L823.4,872H816.7z"/>
			<path class="st1" d="M886,872v-51.3h33.7v6.5h-26.1v15.6h24.6v6.5h-24.6v16.3h26.1v6.5H886z"/>
		</g>
	</g>
	<path class="st1" d="M531.2,498.2c-0.6-0.4-14.4-10.3-23.6-22c-5.7-7.2-9.3-16-9.3-23.1c-0.1-2.8,0.3-11.8,6.7-18.4
		c2.8-2.9,7.8-6.3,15.8-6.3c7,0,12.5,2.5,16.7,5.6c4.2-3.1,9.7-5.6,16.7-5.6c8,0,13,3.4,15.8,6.3c6.4,6.5,6.7,15.5,6.7,18.4
		c0,7-3.6,15.9-9.3,23.1c-9.2,11.7-23,21.6-23.6,22l-6.3,4.5L531.2,498.2z"/>
	<path class="st2" d="M565.8,453c0,4.4-2.6,11-7,16.5c-8.4,10.6-21.4,19.9-21.4,19.9s-13-9.3-21.4-19.9c-4.4-5.5-7-12.1-7-16.5
		c0-1.5,0-13.7,11.7-13.7c10.7,0,16.7,10.5,16.7,10.5s6-10.5,16.7-10.5C565.8,439.3,565.9,451.5,565.8,453z"/>
	<g>
		<g>
			<path class="st1" d="M372.5,940.6c-2.2,0-4.3-0.4-6.1-1.1c-1.8-0.7-3.3-1.8-4.6-3.2c-1.3-1.4-2.3-3.1-3-5.1c-0.7-2-1-4.2-1-6.6
				c0-2.5,0.3-4.7,1-6.6c0.7-2,1.7-3.6,2.9-5c1.3-1.4,2.8-2.4,4.6-3.2c1.8-0.7,3.8-1.1,6.1-1.1c2.3,0,4.3,0.4,6.1,1.1
				c1.8,0.7,3.4,1.8,4.6,3.2c1.3,1.4,2.3,3.1,2.9,5c0.7,2,1,4.2,1,6.6c0,2.5-0.3,4.7-1,6.7c-0.7,2-1.7,3.7-2.9,5.1
				c-1.3,1.4-2.8,2.5-4.6,3.2C376.8,940.3,374.8,940.6,372.5,940.6z M372.5,936.5c2.1,0,3.9-0.5,5.3-1.4c1.4-0.9,2.6-2.3,3.3-4
				c0.8-1.8,1.2-3.9,1.2-6.4c0-2.5-0.4-4.7-1.1-6.4c-0.8-1.8-1.9-3.1-3.3-4c-1.5-0.9-3.2-1.4-5.3-1.4c-2,0-3.8,0.5-5.3,1.4
				c-1.5,0.9-2.6,2.3-3.4,4c-0.8,1.8-1.1,3.9-1.1,6.4c0,2.5,0.4,4.6,1.1,6.4c0.8,1.8,1.9,3.1,3.4,4.1
				C368.7,936.1,370.5,936.5,372.5,936.5z"/>
			<path class="st1" d="M407.2,940.2v-31.1h20.2v3.9h-15.5v9.7h14.6v3.9h-14.6v13.6H407.2z"/>
			<path class="st1" d="M471.3,940.2v-31.1h20.2v3.9H476v9.7h14.6v3.9H476v13.6H471.3z"/>
			<path class="st1" d="M510.1,940.2v-31.1h4.7v27.1h15.4v4.1H510.1z"/>
			<path class="st1" d="M560.3,940.6c-2.2,0-4.3-0.4-6.1-1.1c-1.8-0.7-3.3-1.8-4.6-3.2c-1.3-1.4-2.3-3.1-3-5.1c-0.7-2-1-4.2-1-6.6
				c0-2.5,0.3-4.7,1-6.6c0.7-2,1.7-3.6,2.9-5s2.8-2.4,4.6-3.2c1.8-0.7,3.8-1.1,6.1-1.1c2.3,0,4.3,0.4,6.1,1.1
				c1.8,0.7,3.4,1.8,4.6,3.2c1.3,1.4,2.3,3.1,2.9,5c0.7,2,1,4.2,1,6.6c0,2.5-0.3,4.7-1,6.7c-0.7,2-1.7,3.7-2.9,5.1
				c-1.3,1.4-2.8,2.5-4.6,3.2S562.6,940.6,560.3,940.6z M560.3,936.5c2.1,0,3.9-0.5,5.3-1.4c1.4-0.9,2.6-2.3,3.3-4
				c0.8-1.8,1.2-3.9,1.2-6.4c0-2.5-0.4-4.7-1.1-6.4c-0.8-1.8-1.9-3.1-3.3-4c-1.5-0.9-3.2-1.4-5.3-1.4c-2,0-3.8,0.5-5.3,1.4
				c-1.5,0.9-2.6,2.3-3.4,4c-0.8,1.8-1.1,3.9-1.1,6.4c0,2.5,0.4,4.6,1.1,6.4c0.8,1.8,1.9,3.1,3.4,4.1
				C556.6,936.1,558.3,936.5,560.3,936.5z"/>
			<path class="st1" d="M595.1,940.2v-31.1h13.1c3.4,0,6,0.8,7.9,2.4c1.8,1.6,2.8,3.8,2.8,6.8c0,1.8-0.4,3.3-1.1,4.6
				c-0.8,1.3-1.8,2.3-3.2,3c-1.4,0.7-3,1.1-4.9,1.2l0.3-0.3l0.8,0c1,0.1,1.8,0.4,2.5,0.9c0.7,0.5,1.4,1.4,2,2.5l5.4,10h-5.2
				l-5.3-9.8c-0.4-0.8-0.9-1.4-1.3-1.8c-0.5-0.4-1-0.7-1.7-0.9c-0.6-0.2-1.4-0.2-2.2-0.2h-5.1v12.7H595.1z M599.7,923.8h7.8
				c2.2,0,3.8-0.5,4.9-1.4c1.1-0.9,1.6-2.3,1.6-4.1s-0.5-3.2-1.6-4.1c-1.1-0.9-2.8-1.3-5-1.3h-7.7V923.8z"/>
			<path class="st1" d="M639.1,940.2v-31.1h4.7v31.1H639.1z"/>
			<path class="st1" d="M664.9,940.2v-31.1h11.2c3.4,0,6.3,0.6,8.6,1.8c2.4,1.2,4.2,3,5.4,5.3c1.3,2.3,1.9,5.1,1.9,8.5
				c0,3.3-0.6,6.2-1.9,8.5c-1.3,2.3-3.1,4.1-5.4,5.3c-2.4,1.2-5.2,1.8-8.6,1.8H664.9z M669.6,936.2h6.2c3.7,0,6.6-1,8.5-2.9
				c1.9-1.9,2.8-4.8,2.8-8.7c0-3.9-0.9-6.8-2.8-8.7c-1.9-1.9-4.7-2.8-8.5-2.8h-6.2V936.2z"/>
			<path class="st1" d="M708.2,940.2l13.9-31.1h4l13.9,31.1h-4.9l-3.8-8.8l2.1,1.4h-18.8l2.1-1.4l-3.8,8.8H708.2z M724,914.3
				l-6.6,15.7l-1.1-1.1h15.6l-1.1,1.1l-6.7-15.7H724z"/>
		</g>
		<rect x="773.1" y="924.2" class="st1" width="146.5" height="4.4"/>
		<rect x="178.2" y="924.2" class="st1" width="146.5" height="4.4"/>
	</g>
</g>
<g>
</g>
<g>
</g>
<g>
</g>
<g>
</g>
<g>
</g>
<g>
</g>
</svg>
