<?xml version="1.0" encoding="utf-8"?>
<!-- CCOF SIMPLIFIED FAVICON — built from the real Illustrator source (02_icon_only.svg).
     Arc (4 paths) + 3 community dots removed. Hand + child + head + coral heart retained, untouched.
     viewBox tightened to the remaining artwork for crisp small-size rendering. -->
<svg xmlns="http://www.w3.org/2000/svg" width="256" height="256" viewBox="90 220 900 900">
  <style type="text/css">.st0{fill:#6F8764;}.st1{fill:#EF7F6D;}</style>
  <!-- child head -->
  <circle class="st0" cx="539.7" cy="406.3" r="88.4"/>
  <!-- cupped hand -->
  <path class="st0" d="M130.9,854c0,0,30.9-12.7,75.5-35.1s93.2-49,156.7-49S447,791.3,503,807.6s90.4,21.1,133.5,13
    s71.1-18.7,82.5,6.9c11.4,25.6-22.6,60.9-163.6,78c-32.1,4.2-76.2-2.4-76.2-2.4s31.3,28.3,129.2,28.3s172-57.5,211.8-95.5
    c57.8-44.6,104-128.5,145.2-125.9s-18.7,153-176.5,267.5c-166.3,113.9-357.9,78.3-459.1,33.7C228.5,966.6,164.3,894.7,130.9,854z"/>
  <!-- child body + arms (with inset around heart) -->
  <path class="st0" d="M760.4,396.4c-5.4-4.2-11.7-6.2-18.1-6.2c-8.2,0-16.3,3.4-22.1,10l-9.2,10.5c0,0-37.8,49.8-66.3,75.1
    c-28.5,25.3-65.1,43.4-111.3,43.4s-78.1-22.7-115.3-59.8c-20.4-20.4-39.7-46.3-52.9-65.6c-9.9-14.4-30-17.2-43.5-6.1
    c-6.2,5.1-8.9,13.1-8.9,21.4c0,7.5,2.2,15.2,6.2,21.3c15.4,23.3,35.3,55.3,44.1,69.9c13.6,22.9,47.4,65.5,47.4,143.4
    c-0.8,65.9-8,96-8,96s43,10.8,77.1,25.7c34.1,14.9,73.9,25.7,106.8,25.7c32.9,0,73.5-6,87.2-12.4c0,0-19.3-97.6-5.2-162.3
    c8-36.9,12.8-55.3,27.6-83.2c11.2-21.1,28.1-48.7,56-87.5c3.3-4.4,7.9-10.8,10.8-14.6C772.5,428.3,773,406.3,760.4,396.4z
    M611.7,636.9c-0.1,13.2-6.8,29.7-17.6,43.3c-17.8,22.4-44.3,41.5-45.4,42.3l-10.7,7.6l-10.7-7.6c-1.1-0.8-27.6-19.9-45.4-42.3
    c-10.7-13.6-17.5-30.1-17.6-43.3c-0.1-5.2,0.6-21.9,12.2-33.9c5.1-5.3,14.3-11.5,28.9-11.5c13.1,0,24.1,5.2,32.5,11.7
    c8.4-6.5,19.4-11.7,32.5-11.7c14.6,0,23.8,6.3,28.9,11.5C611.1,615.1,611.8,631.7,611.7,636.9z"/>
  <!-- protected coral heart -->
  <path class="st1" d="M593.3,636.7c0,8.6-5,21.4-13.6,32.1c-16.3,20.7-41.6,38.8-41.6,38.8s-25.3-18.1-41.6-38.8
    c-8.5-10.8-13.6-23.5-13.6-32.1c-0.1-2.9,0-26.7,22.7-26.7c20.9,0,32.5,20.4,32.5,20.4s11.6-20.4,32.5-20.4
    C593.3,609.9,593.3,633.8,593.3,636.7z"/>
</svg>
