<?xml version="1.0" encoding="utf-8"?>
<!-- Generator: Adobe Illustrator 26.5.0, SVG Export Plug-In . SVG Version: 6.00 Build 0)  -->
<svg version="1.1" id="Layer_1" xmlns="http://www.w3.org/2000/svg" xmlns:xlink="http://www.w3.org/1999/xlink" x="0px" y="0px"
	 viewBox="0 0 1080 1080" style="enable-background:new 0 0 1080 1080;" xml:space="preserve">
<style type="text/css">
	.st0{fill:#6F8764;}
	.st1{fill:#EF7F6D;}
</style>
<g>
	<path class="st0" d="M475.5,60c0,7.8,1.4,15.3,4,22.2c-8.7,2-17.4,4.4-25.6,7.2c-65.4,22.6-114.9,67-145,121.7
		c-6.6-4-14.2-6.7-22.2-7.8C322,129.8,389.5,71.4,476,52.1C475.7,54.7,475.5,57.3,475.5,60z"/>
	<path class="st0" d="M788.7,203.3c-8,1.1-15.5,3.9-22.1,7.9c-30-54.7-79.6-99.3-145-121.9l-8.1-2.7c-2.9-0.8-9.6-2.6-12.3-3.4
		c-0.6-0.2-1.3-0.3-1.9-0.5c2.7-7.1,4.2-14.9,4.2-22.9c0-2.4-0.1-4.7-0.4-7c6.5,1.6,13.1,3.4,19.3,5.3c2.7,1,10.8,3.7,13.5,4.7
		c4.2,1.8,9.1,3.6,13.2,5.4C713.1,95.6,761.1,145,788.7,203.3z"/>
	<path class="st0" d="M318.6,513.1c-7.1,0-13.9-3.4-18-9.3c-38.4-54.5-55.1-122.4-43.6-189.5c6.8,2.8,14.3,4.4,22.2,4.4
		c0.7,0,1.4,0,2.2,0c-7.4,35.5-6.7,73.3,3.6,111.2c7.5,27.9,20.2,53.8,36.8,77.1C323.5,509.6,321.7,513.1,318.6,513.1z"/>
	<path class="st0" d="M799.2,468.7c-1.1,2.3-2.9,4.1-4.9,5.4c-2.1,1.3-4.5,2-7,2c-4,0-6.6-4.2-4.9-7.8c0.9-2,0.7-1.4,2.3-5
		c3.8-8.4,6.9-17.2,9.6-26c3.4-11,5.9-22.3,7.7-33.7c0.9-5.8,1.6-11.6,2-17.5c1.8-23.3,0.2-45.9-4.3-67.4c7.9-0.4,15.4-2.3,22.2-5.6
		C830.9,365.7,823.3,420.2,799.2,468.7z"/>
	<g id="circles">
		<circle class="st0" cx="279.1" cy="260.8" r="43.7"/>
		<circle class="st0" cx="796.8" cy="260.8" r="43.7"/>
		<circle class="st0" cx="539.5" cy="60" r="49.7"/>
		<circle class="st0" cx="537.8" cy="268.5" r="60"/>
	</g>
	<path class="st0" d="M260.1,572.6c0,0,21-8.6,51.3-23.9c30.3-15.3,63.3-33.3,106.4-33.3s57,14.6,95,25.7
		c38.1,11.1,61.4,14.3,90.7,8.8c29.3-5.5,48.3-12.7,56.1,4.7c7.8,17.4-15.3,41.3-111.1,53c-21.8,2.9-51.8-1.6-51.8-1.6
		s21.3,19.2,87.8,19.2s116.9-39.1,143.9-64.9C767.6,530,799,473,827,474.8c28,1.7-12.7,104-119.9,181.7
		c-113,77.4-243.1,53.2-311.9,22.9S282.7,600.3,260.1,572.6z"/>
	<path class="st0" d="M687.7,261.7c-3.6-2.8-8-4.2-12.3-4.2c-5.6,0-11.1,2.3-15,6.8l-6.3,7.2c0,0-25.7,33.8-45,51
		c-19.4,17.2-44.2,29.5-75.6,29.5s-53.1-15.4-78.3-40.6c-13.8-13.9-26.9-31.5-36-44.5c-6.7-9.8-20.4-11.7-29.5-4.1
		c-4.2,3.5-6.1,8.9-6.1,14.5c0,5.1,1.5,10.3,4.2,14.4c10.5,15.8,24,37.5,29.9,47.5c9.3,15.5,32.2,44.5,32.2,97.4
		c-0.5,44.8-5.4,65.2-5.4,65.2s29.2,7.4,52.4,17.5c23.2,10.1,50.2,17.5,72.6,17.5c22.4,0,49.9-4.1,59.2-8.4c0,0-13.1-66.3-3.6-110.2
		c5.5-25.1,8.7-37.5,18.8-56.6c7.6-14.3,19.1-33.1,38.1-59.4c2.2-3,5.4-7.3,7.3-9.9C695.9,283.4,696.3,268.5,687.7,261.7z
		 M586.6,425.2c-0.1,8.9-4.6,20.2-11.9,29.4c-12.1,15.2-30.1,28.2-30.8,28.7l-7.3,5.2l-7.3-5.2c-0.8-0.6-18.8-13.5-30.8-28.8
		c-7.3-9.2-11.9-20.5-11.9-29.4c-0.1-3.6,0.4-14.9,8.3-23c3.5-3.6,9.7-7.8,19.6-7.8c8.9,0,16.4,3.5,22.1,7.9
		c5.7-4.4,13.2-7.9,22.1-7.9c9.9,0,16.1,4.2,19.6,7.8C586.3,410.3,586.7,421.6,586.6,425.2z"/>
	<g>
		<g>
			<path class="st0" d="M72.9,867.6v-86.2H38v-16.1H127v16.1h-35v86.2H72.9z"/>
			<path class="st0" d="M139.2,867.6V765.4h18.4V810h-1c2.2-4.9,5.6-8.8,10-11.5c4.4-2.7,9.5-4.1,15.2-4.1c5.8,0,10.6,1.1,14.5,3.3
				c3.9,2.2,6.8,5.5,8.7,9.9c1.9,4.4,2.9,10.1,2.9,16.8v43.1h-18.9v-42.2c0-3.6-0.5-6.5-1.4-8.8c-0.9-2.3-2.3-4.1-4.3-5.2
				c-1.9-1.2-4.4-1.7-7.5-1.7c-3.5,0-6.6,0.8-9.3,2.3c-2.7,1.5-4.8,3.7-6.3,6.5c-1.5,2.8-2.2,6-2.2,9.6v39.6H139.2z"/>
			<path class="st0" d="M264.8,869.1c-8.5,0-15.8-1.5-21.8-4.5c-6-3-10.7-7.3-13.9-12.9c-3.2-5.6-4.8-12.2-4.8-19.9
				c0-7.3,1.5-13.7,4.6-19.2c3-5.6,7.3-10,12.8-13.2c5.5-3.2,11.9-4.9,19.3-4.9c6.9,0,12.8,1.5,17.8,4.4c5,3,8.9,7.2,11.7,12.6
				c2.8,5.5,4.1,12,4.1,19.5v5.7h-55.3v-11.2h41.9l-2.3,2.3c0-6.7-1.5-11.7-4.6-15.2c-3-3.4-7.4-5.1-13-5.1c-4,0-7.4,0.9-10.3,2.7
				c-2.9,1.8-5.1,4.3-6.7,7.6c-1.6,3.3-2.4,7.3-2.4,12v1.5c0,5.3,0.9,9.7,2.6,13.1c1.7,3.4,4.4,6,7.8,7.6c3.5,1.6,7.7,2.5,12.8,2.5
				c3.9,0,7.8-0.5,11.8-1.6c4-1.1,7.7-2.9,11-5.4l5.2,12.8c-3.6,2.8-8,5-13.1,6.5C275,868.3,269.9,869.1,264.8,869.1z"/>
			<path class="st0" d="M401.3,869.1c-10.4,0-19.5-2.1-27.1-6.4c-7.6-4.3-13.4-10.3-17.6-18.2c-4.1-7.9-6.2-17.2-6.2-28.1
				c0-10.8,2.1-20.2,6.2-28c4.1-7.8,9.9-13.9,17.5-18.1c7.5-4.3,16.6-6.4,27.1-6.4c7,0,13.5,1,19.5,3c6,2,11.1,5,15.2,9l-6.4,15.1
				c-4.4-3.7-8.8-6.3-13.2-7.9c-4.4-1.6-9.3-2.4-14.5-2.4c-10,0-17.7,3.1-23.1,9.2c-5.5,6.1-8.2,15-8.2,26.5
				c0,11.5,2.7,20.4,8.1,26.5c5.4,6.2,13.1,9.3,23.2,9.3c5.2,0,10.1-0.8,14.5-2.4c4.4-1.6,8.8-4.2,13.2-7.9L436,857
				c-4.1,3.9-9.1,6.8-15.2,8.9C414.8,868,408.3,869.1,401.3,869.1z"/>
			<path class="st0" d="M452.8,867.6V765.4h18.4V810h-1c2.2-4.9,5.6-8.8,10-11.5c4.4-2.7,9.5-4.1,15.2-4.1c5.8,0,10.6,1.1,14.5,3.3
				c3.9,2.2,6.8,5.5,8.7,9.9c1.9,4.4,2.9,10.1,2.9,16.8v43.1h-18.9v-42.2c0-3.6-0.5-6.5-1.4-8.8c-0.9-2.3-2.3-4.1-4.3-5.2
				c-1.9-1.2-4.4-1.7-7.5-1.7c-3.5,0-6.6,0.8-9.3,2.3c-2.7,1.5-4.8,3.7-6.3,6.5c-1.5,2.8-2.2,6-2.2,9.6v39.6H452.8z"/>
			<path class="st0" d="M540.6,781.2v-18.6h21.3v18.6H540.6z M541.9,867.6V796h18.9v71.7H541.9z"/>
			<path class="st0" d="M606.3,869.1c-8.3,0-14.6-2.2-18.7-6.7c-4.2-4.5-6.2-11-6.2-19.7v-77.3h18.9v76.2c0,2.7,0.4,5,1.2,6.8
				c0.8,1.8,1.9,3.2,3.5,4.2c1.5,1,3.4,1.5,5.7,1.5c1.3,0,2.5-0.1,3.6-0.2c1.2-0.1,2.3-0.4,3.5-0.7l0.3,14.4
				c-1.9,0.5-3.8,0.9-5.7,1.2C610.4,868.9,608.4,869.1,606.3,869.1z"/>
			<path class="st0" d="M657.3,869.1c-6.5,0-12.1-1.5-17-4.6c-4.8-3.1-8.6-7.4-11.2-13.1c-2.7-5.6-4-12.1-4-19.6
				c0-7.5,1.3-14.1,4-19.7c2.7-5.6,6.4-9.9,11.2-13c4.8-3.1,10.4-4.6,16.8-4.6c5.9,0,11,1.4,15.3,4.2c4.3,2.8,7.3,6.5,9.1,11h-0.9
				v-44.4h18.9v102.3h-17.7v-14.9h0.6c-1.8,5.1-5,9.1-9.4,12C668.5,867.6,663.3,869.1,657.3,869.1z M662.4,854.7
				c5.7,0,10.2-2,13.5-5.9c3.3-4,4.9-9.6,4.9-17c0-7.4-1.6-13.1-4.9-17c-3.3-3.9-7.8-5.8-13.5-5.8c-5.6,0-10.1,1.9-13.4,5.8
				c-3.3,3.9-5,9.5-5,17c0,7.3,1.7,13,5,17C652.3,852.7,656.8,854.7,662.4,854.7z"/>
			<path class="st0" d="M720,867.6V796h17.6v17.4H737c1.5-5.6,4.2-10,8.2-13.2c4-3.2,9.2-5,15.6-5.4l6.8-0.6l1.3,16.5l-11.7,1
				c-5.9,0.6-10.4,2.5-13.5,5.7c-3.1,3.2-4.6,7.4-4.6,12.8v37.4H720z"/>
			<path class="st0" d="M816.3,869.1c-8.5,0-15.8-1.5-21.8-4.5c-6-3-10.7-7.3-13.9-12.9c-3.2-5.6-4.8-12.2-4.8-19.9
				c0-7.3,1.5-13.7,4.6-19.2c3-5.6,7.3-10,12.8-13.2c5.5-3.2,11.9-4.9,19.3-4.9c6.9,0,12.8,1.5,17.8,4.4c5,3,8.9,7.2,11.7,12.6
				c2.8,5.5,4.1,12,4.1,19.5v5.7h-55.3v-11.2h41.9l-2.3,2.3c0-6.7-1.5-11.7-4.6-15.2c-3-3.4-7.4-5.1-13-5.1c-4,0-7.4,0.9-10.3,2.7
				c-2.9,1.8-5.1,4.3-6.7,7.6c-1.6,3.3-2.4,7.3-2.4,12v1.5c0,5.3,0.9,9.7,2.6,13.1c1.7,3.4,4.4,6,7.8,7.6c3.5,1.6,7.7,2.5,12.8,2.5
				c3.9,0,7.8-0.5,11.8-1.6c4-1.1,7.7-2.9,11-5.4l5.2,12.8c-3.6,2.8-8,5-13.1,6.5C826.5,868.3,821.4,869.1,816.3,869.1z"/>
			<path class="st0" d="M862.6,867.6V796h17.8v14.5h-0.7c2.2-5.1,5.6-9.1,10.2-11.8c4.5-2.8,9.7-4.1,15.4-4.1
				c5.8,0,10.6,1.1,14.5,3.3c3.9,2.2,6.8,5.5,8.7,9.9c1.9,4.4,2.9,10.1,2.9,16.8v43.1h-18.9v-42.2c0-3.6-0.5-6.5-1.4-8.8
				c-0.9-2.3-2.3-4.1-4.3-5.2c-1.9-1.2-4.4-1.7-7.5-1.7c-3.5,0-6.6,0.8-9.3,2.3c-2.7,1.5-4.8,3.7-6.3,6.5c-1.5,2.8-2.2,6-2.2,9.6
				v39.6H862.6z"/>
			<path class="st0" d="M957,807.3l-8.1-6.4c2-2,3.6-4.1,4.9-6.1c1.2-2,2.1-4.1,2.8-6.2c0.6-2.1,1-4.2,1.1-6.3l4.4,3.8h-14.8v-20.7
				h21.6v14.2c0,3.5-0.4,6.8-1.2,10c-0.8,3.2-2,6.2-3.6,9.1C962.3,801.6,960,804.5,957,807.3z"/>
			<path class="st0" d="M1010.6,869.1c-4.2,0-8.2-0.3-12-1c-3.9-0.7-7.4-1.6-10.7-2.8c-3.2-1.2-6.1-2.7-8.5-4.5l4.9-12.6
				c2.4,1.5,5.1,2.9,8,4c2.9,1.1,5.9,1.9,9,2.5c3.1,0.5,6.1,0.8,9,0.8c5,0,8.8-0.7,11.2-2.1c2.5-1.4,3.7-3.4,3.7-6
				c0-2.2-0.7-3.9-2.2-5.1c-1.5-1.2-3.9-2-7.2-2.5l-15.2-2.6c-6.4-1.1-11.2-3.3-14.5-6.8c-3.3-3.5-4.9-7.8-4.9-13.1
				c0-4.5,1.3-8.5,3.8-11.9c2.5-3.4,6.1-6,10.9-8c4.7-1.9,10.3-2.9,16.8-2.9c3.5,0,6.9,0.3,10.4,0.9c3.4,0.6,6.6,1.5,9.6,2.8
				c2.9,1.2,5.5,2.7,7.6,4.6l-5.2,12.6c-1.8-1.5-4-2.9-6.5-3.9c-2.5-1.1-5.1-1.9-7.8-2.5c-2.7-0.6-5.3-0.9-7.8-0.9
				c-5,0-8.8,0.7-11.2,2.2c-2.4,1.5-3.6,3.6-3.6,6.2c0,2.1,0.7,3.8,2.1,5c1.4,1.2,3.6,2.1,6.6,2.5l14.9,2.6c6.9,1.2,12,3.4,15.4,6.6
				c3.4,3.2,5.1,7.6,5.1,13.1c0,4.7-1.3,8.8-3.9,12.2c-2.6,3.4-6.3,6-11,7.8C1022.5,868.2,1016.9,869.1,1010.6,869.1z"/>
		</g>
		<g>
			<path class="st0" d="M95.5,979.9c-6.7,0-12.5-1.4-17.4-4.2c-4.9-2.8-8.6-6.8-11.3-12.1c-2.6-5.2-3.9-11.4-3.9-18.6
				c0-7.2,1.3-13.4,3.9-18.6c2.6-5.2,6.4-9.2,11.3-12c4.9-2.8,10.7-4.2,17.4-4.2c4.7,0,9,0.7,13,2.1c4,1.4,7.3,3.5,10,6.2l-3.6,8.1
				c-3-2.5-6-4.3-9-5.5c-3.1-1.2-6.4-1.7-10.1-1.7c-7.1,0-12.5,2.2-16.4,6.6c-3.8,4.4-5.8,10.7-5.8,19c0,8.3,1.9,14.6,5.8,19
				c3.8,4.4,9.3,6.6,16.4,6.6c3.7,0,7-0.6,10.1-1.7c3.1-1.2,6.1-3,9-5.5l3.6,8.1c-2.7,2.7-6,4.8-10,6.2
				C104.5,979.2,100.2,979.9,95.5,979.9z"/>
			<path class="st0" d="M203.7,979.8c-4.9,0-9.3-0.8-13.2-2.4c-3.9-1.6-7.3-3.9-10.1-7c-2.8-3-5-6.7-6.4-11
				c-1.5-4.3-2.2-9.1-2.2-14.4c0-5.4,0.7-10.2,2.2-14.5c1.5-4.3,3.6-7.9,6.4-10.9c2.8-3,6.2-5.3,10.1-6.9c3.9-1.6,8.4-2.4,13.2-2.4
				c4.9,0,9.4,0.8,13.3,2.4c3.9,1.6,7.3,3.9,10.1,6.9c2.8,3,4.9,6.7,6.4,10.9c1.5,4.3,2.2,9.1,2.2,14.4c0,5.4-0.7,10.2-2.2,14.5
				c-1.5,4.3-3.6,8-6.4,11c-2.8,3-6.2,5.4-10.1,7C213.1,979,208.7,979.8,203.7,979.8z M203.7,970.8c4.6,0,8.4-1,11.5-3
				s5.6-5,7.3-8.8c1.7-3.8,2.5-8.5,2.5-14c0-5.5-0.8-10.2-2.5-14c-1.7-3.8-4.1-6.8-7.3-8.8c-3.2-2-7-3-11.6-3c-4.4,0-8.2,1-11.4,3
				c-3.2,2-5.6,4.9-7.3,8.8c-1.7,3.8-2.5,8.5-2.5,14c0,5.5,0.8,10.1,2.5,14c1.7,3.9,4.1,6.8,7.3,8.9
				C195.5,969.8,199.3,970.8,203.7,970.8z"/>
			<path class="st0" d="M295.3,978.9v-67.8h10.2v59h33.6v8.9H295.3z"/>
			<path class="st0" d="M394.8,978.9v-67.8H405v59h33.6v8.9H394.8z"/>
			<path class="st0" d="M494.3,978.9v-67.8h44.5v8.6h-34.5v20.6h32.5v8.6h-32.5v21.5h34.5v8.6H494.3z"/>
			<path class="st0" d="M628,979.9c-6.7,0-12.5-1.4-17.4-4.2c-4.9-2.8-8.6-6.8-11.3-12.1c-2.6-5.2-3.9-11.4-3.9-18.6
				c0-7.2,1.3-13.4,3.9-18.6c2.6-5.2,6.4-9.2,11.3-12c4.9-2.8,10.7-4.2,17.4-4.2c4.7,0,9,0.7,13,2.1c4,1.4,7.3,3.5,10,6.2l-3.6,8.1
				c-3-2.5-6-4.3-9-5.5c-3.1-1.2-6.4-1.7-10.1-1.7c-7.1,0-12.5,2.2-16.4,6.6c-3.8,4.4-5.8,10.7-5.8,19c0,8.3,1.9,14.6,5.8,19
				c3.8,4.4,9.3,6.6,16.4,6.6c3.7,0,7-0.6,10.1-1.7c3.1-1.2,6.1-3,9-5.5l3.6,8.1c-2.7,2.7-6,4.8-10,6.2
				C637,979.2,632.7,979.9,628,979.9z"/>
			<path class="st0" d="M724.4,978.9v-59.1h-24v-8.8h58.2v8.8h-24v59.1H724.4z"/>
			<path class="st0" d="M813.1,978.9v-67.8h10.2v67.8H813.1z"/>
			<path class="st0" d="M905.9,978.9l-29.7-67.8h11.1l24.4,57.4h-2.2l24.3-57.4h10.7l-29.7,67.8H905.9z"/>
			<path class="st0" d="M997.5,978.9v-67.8h44.5v8.6h-34.5v20.6h32.5v8.6h-32.5v21.5h34.5v8.6H997.5z"/>
		</g>
	</g>
	<path class="st1" d="M574.2,425c0,5.9-3.4,14.5-9.2,21.8c-11.1,14-28.3,26.3-28.3,26.3s-17.2-12.3-28.3-26.3
		c-5.8-7.3-9.2-16-9.2-21.8c-0.1-2,0-18.2,15.4-18.2c14.2,0,22.1,13.9,22.1,13.9s7.9-13.9,22.1-13.9
		C574.2,406.8,574.2,423,574.2,425z"/>
	<g>
		<g>
			<path class="st0" d="M318.6,1069.7c-3,0-5.6-0.5-8-1.5c-2.4-1-4.4-2.4-6.1-4.2c-1.7-1.8-3-4.1-3.9-6.7c-0.9-2.6-1.3-5.5-1.3-8.8
				c0-3.3,0.4-6.2,1.3-8.8c0.9-2.6,2.2-4.8,3.9-6.6c1.7-1.8,3.7-3.2,6.1-4.2c2.4-1,5.1-1.5,8-1.5c3,0,5.7,0.5,8.1,1.5
				c2.4,1,4.4,2.4,6.1,4.2c1.7,1.8,3,4,3.9,6.6c0.9,2.6,1.3,5.5,1.3,8.7c0,3.3-0.4,6.2-1.3,8.8c-0.9,2.6-2.2,4.8-3.9,6.7
				c-1.7,1.8-3.7,3.3-6.1,4.2C324.3,1069.2,321.6,1069.7,318.6,1069.7z M318.6,1064.3c2.8,0,5.1-0.6,7-1.8c1.9-1.2,3.4-3,4.4-5.3
				c1-2.3,1.5-5.2,1.5-8.5s-0.5-6.2-1.5-8.5c-1-2.3-2.5-4.1-4.4-5.3c-1.9-1.2-4.3-1.8-7-1.8c-2.7,0-5,0.6-6.9,1.8
				c-1.9,1.2-3.4,3-4.4,5.3c-1,2.3-1.5,5.2-1.5,8.5c0,3.3,0.5,6.1,1.5,8.5c1,2.4,2.5,4.1,4.4,5.4
				C313.6,1063.7,315.9,1064.3,318.6,1064.3z"/>
			<path class="st0" d="M364.5,1069.2V1028h26.7v5.2h-20.5v12.8H390v5.1h-19.3v18H364.5z"/>
			<path class="st0" d="M449.1,1069.2V1028h26.7v5.2h-20.5v12.8h19.3v5.1h-19.3v18H449.1z"/>
			<path class="st0" d="M500.5,1069.2V1028h6.2v35.8h20.4v5.4H500.5z"/>
			<path class="st0" d="M566.9,1069.7c-3,0-5.6-0.5-8-1.5c-2.4-1-4.4-2.4-6.1-4.2c-1.7-1.8-3-4.1-3.9-6.7c-0.9-2.6-1.3-5.5-1.3-8.8
				c0-3.3,0.4-6.2,1.3-8.8c0.9-2.6,2.2-4.8,3.9-6.6s3.7-3.2,6.1-4.2c2.4-1,5.1-1.5,8-1.5c3,0,5.7,0.5,8.1,1.5c2.4,1,4.4,2.4,6.1,4.2
				c1.7,1.8,3,4,3.9,6.6c0.9,2.6,1.3,5.5,1.3,8.7c0,3.3-0.4,6.2-1.3,8.8c-0.9,2.6-2.2,4.8-3.9,6.7c-1.7,1.8-3.7,3.3-6.1,4.2
				C572.6,1069.2,569.9,1069.7,566.9,1069.7z M566.9,1064.3c2.8,0,5.1-0.6,7-1.8c1.9-1.2,3.4-3,4.4-5.3c1-2.3,1.5-5.2,1.5-8.5
				s-0.5-6.2-1.5-8.5c-1-2.3-2.5-4.1-4.4-5.3c-1.9-1.2-4.3-1.8-7-1.8c-2.7,0-5,0.6-6.9,1.8c-1.9,1.2-3.4,3-4.4,5.3
				c-1,2.3-1.5,5.2-1.5,8.5c0,3.3,0.5,6.1,1.5,8.5c1,2.4,2.5,4.1,4.4,5.4C561.9,1063.7,564.2,1064.3,566.9,1064.3z"/>
			<path class="st0" d="M612.8,1069.2V1028h17.3c4.5,0,8,1,10.4,3.1c2.4,2.1,3.7,5.1,3.7,9c0,2.3-0.5,4.4-1.5,6c-1,1.7-2.4,3-4.2,4
				c-1.8,1-4,1.5-6.5,1.6l0.4-0.4l1.1,0.1c1.3,0.1,2.4,0.5,3.4,1.2c1,0.7,1.8,1.8,2.7,3.4l7.1,13.3h-6.8l-7-13
				c-0.5-1-1.1-1.8-1.8-2.3s-1.4-0.9-2.2-1.1c-0.8-0.2-1.8-0.3-2.9-0.3H619v16.8H612.8z M619,1047.5h10.3c2.9,0,5.1-0.6,6.5-1.8
				c1.4-1.2,2.1-3,2.1-5.4c0-2.4-0.7-4.2-2.2-5.4c-1.4-1.2-3.6-1.8-6.6-1.8H619V1047.5z"/>
			<path class="st0" d="M671,1069.2V1028h6.2v41.2H671z"/>
			<path class="st0" d="M705.2,1069.2V1028H720c4.5,0,8.3,0.8,11.4,2.4c3.1,1.6,5.5,3.9,7.2,7c1.7,3.1,2.5,6.8,2.5,11.2
				s-0.8,8.1-2.5,11.2c-1.7,3.1-4.1,5.4-7.2,7c-3.1,1.6-6.9,2.4-11.4,2.4H705.2z M711.4,1063.9h8.2c4.9,0,8.7-1.3,11.2-3.8
				c2.5-2.5,3.8-6.4,3.8-11.5s-1.3-9-3.8-11.5c-2.5-2.5-6.2-3.8-11.2-3.8h-8.2V1063.9z"/>
			<path class="st0" d="M762.4,1069.2l18.3-41.2h5.3l18.3,41.2H798l-5-11.6l2.8,1.8h-24.9l2.8-1.8l-5,11.6H762.4z M783.3,1034.9
				l-8.8,20.8l-1.5-1.5h20.7l-1.5,1.5l-8.8-20.8H783.3z"/>
		</g>
		<rect x="848.1" y="1048" class="st0" width="193.7" height="5.8"/>
		<rect x="61.7" y="1048" class="st0" width="193.7" height="5.8"/>
	</g>
</g>
<g>
</g>
<g>
</g>
<g>
</g>
<g>
</g>
<g>
</g>
<g>
</g>
</svg>
