<?xml version="1.0" encoding="utf-8"?>
<!-- Generator: Adobe Illustrator 26.5.0, SVG Export Plug-In . SVG Version: 6.00 Build 0)  -->
<svg version="1.1" id="Layer_1" xmlns="http://www.w3.org/2000/svg" xmlns:xlink="http://www.w3.org/1999/xlink" x="0px" y="0px"
	 viewBox="0 0 1080 1080" style="enable-background:new 0 0 1080 1080;" xml:space="preserve">
<style type="text/css">
	.st0{fill:#6F8764;}
	.st1{fill:#EF7F6D;}
</style>
<g>
	<path class="st0" d="M448.1,99.4c0,11.5,2.1,22.5,5.9,32.7c-12.8,2.9-25.5,6.4-37.7,10.6C320,176,247.1,241.4,202.9,321.8
		c-9.8-5.9-20.9-9.9-32.7-11.5c51.8-108.1,151.2-194.1,278.6-222.5C448.3,91.6,448.1,95.5,448.1,99.4z"/>
	<path class="st0" d="M909.1,310.4c-11.8,1.7-22.8,5.7-32.5,11.7C832.4,241.5,759.5,176,663.1,142.7l-11.9-3.9
		c-4.2-1.2-14.1-3.9-18.2-5c-0.9-0.2-1.9-0.4-2.8-0.7c4-10.5,6.3-21.9,6.3-33.7c0-3.5-0.2-6.9-0.6-10.3c9.6,2.3,19.3,5,28.4,7.8
		c4,1.5,15.9,5.4,19.9,6.9c6.2,2.6,13.3,5.3,19.5,7.9C797.8,151.9,868.4,224.6,909.1,310.4z"/>
	<path class="st0" d="M217.1,766.4c-10.5,0-20.5-5-26.6-13.6c-56.5-80.3-81.1-180.2-64.2-278.9c10.1,4.2,21.1,6.5,32.7,6.5
		c1.1,0,2.1,0,3.2-0.1c-10.9,52.3-9.8,107.9,5.4,163.7c11,41.1,29.7,79.3,54.1,113.5C224.3,761.2,221.6,766.4,217.1,766.4z"/>
	<path class="st0" d="M924.5,701.1c-1.7,3.3-4.2,6-7.3,7.9c-3,1.9-6.6,2.9-10.4,2.9c-5.9,0-9.8-6.1-7.3-11.4c1.3-2.9,1-2.1,3.4-7.3
		c5.6-12.4,10.1-25.3,14.1-38.3c4.9-16.2,8.7-32.8,11.3-49.7c1.3-8.5,2.3-17.1,2.9-25.8c2.7-34.4,0.3-67.6-6.3-99.2
		c11.7-0.6,22.7-3.4,32.7-8.3C971.2,549.4,960,629.7,924.5,701.1z"/>
	<g id="circles_00000093855530092385099300000000517802497688299687_">
		<circle class="st0" cx="159" cy="395" r="64.3"/>
		<circle class="st0" cx="921" cy="395" r="64.3"/>
		<circle class="st0" cx="542.3" cy="99.4" r="73.1"/>
		<circle class="st0" cx="539.7" cy="406.3" r="88.4"/>
	</g>
	<path class="st0" d="M130.9,854c0,0,30.9-12.7,75.5-35.1s93.2-49,156.7-49S447,791.3,503,807.6s90.4,21.1,133.5,13
		s71.1-18.7,82.5,6.9c11.4,25.6-22.6,60.9-163.6,78c-32.1,4.2-76.2-2.4-76.2-2.4s31.3,28.3,129.2,28.3s172-57.5,211.8-95.5
		c57.8-44.6,104-128.5,145.2-125.9s-18.7,153-176.5,267.5c-166.3,113.9-357.9,78.3-459.1,33.7C228.5,966.6,164.3,894.7,130.9,854z"
		/>
	<path class="st0" d="M760.4,396.4c-5.4-4.2-11.7-6.2-18.1-6.2c-8.2,0-16.3,3.4-22.1,10l-9.2,10.5c0,0-37.8,49.8-66.3,75.1
		c-28.5,25.3-65.1,43.4-111.3,43.4s-78.1-22.7-115.3-59.8c-20.4-20.4-39.7-46.3-52.9-65.6c-9.9-14.4-30-17.2-43.5-6.1
		c-6.2,5.1-8.9,13.1-8.9,21.4c0,7.5,2.2,15.2,6.2,21.3c15.4,23.3,35.3,55.3,44.1,69.9c13.6,22.9,47.4,65.5,47.4,143.4
		c-0.8,65.9-8,96-8,96s43,10.8,77.1,25.7c34.1,14.9,73.9,25.7,106.8,25.7c32.9,0,73.5-6,87.2-12.4c0,0-19.3-97.6-5.2-162.3
		c8-36.9,12.8-55.3,27.6-83.2c11.2-21.1,28.1-48.7,56-87.5c3.3-4.4,7.9-10.8,10.8-14.6C772.5,428.3,773,406.3,760.4,396.4z
		 M611.7,636.9c-0.1,13.2-6.8,29.7-17.6,43.3c-17.8,22.4-44.3,41.5-45.4,42.3l-10.7,7.6l-10.7-7.6c-1.1-0.8-27.6-19.9-45.4-42.3
		c-10.7-13.6-17.5-30.1-17.6-43.3c-0.1-5.2,0.6-21.9,12.2-33.9c5.1-5.3,14.3-11.5,28.9-11.5c13.1,0,24.1,5.2,32.5,11.7
		c8.4-6.5,19.4-11.7,32.5-11.7c14.6,0,23.8,6.3,28.9,11.5C611.1,615.1,611.8,631.7,611.7,636.9z"/>
	<path class="st1" d="M593.3,636.7c0,8.6-5,21.4-13.6,32.1c-16.3,20.7-41.6,38.8-41.6,38.8s-25.3-18.1-41.6-38.8
		c-8.5-10.8-13.6-23.5-13.6-32.1c-0.1-2.9,0-26.7,22.7-26.7c20.9,0,32.5,20.4,32.5,20.4s11.6-20.4,32.5-20.4
		C593.3,609.9,593.3,633.8,593.3,636.7z"/>
</g>
<g>
</g>
<g>
</g>
<g>
</g>
<g>
</g>
<g>
</g>
<g>
</g>
</svg>
